<?xml version="1.0" encoding="UTF-8"?>
<svg version="1.1" xmlns="http://www.w3.org/2000/svg" width="150" height="150">
<path d="M0 0 C49.5 0 99 0 150 0 C150 49.5 150 99 150 150 C100.5 150 51 150 0 150 C0 100.5 0 51 0 0 Z " fill="#FEF6E9" transform="translate(0,0)"/>
<path d="M0 0 C21.12 0 42.24 0 64 0 C65.88343932 3.76687864 66.22057835 5.02958963 66 9 C66.58007812 8.95359375 67.16015625 8.9071875 67.7578125 8.859375 C73.41230827 8.59811117 76.52891958 9.18322403 81 13 C83.97617913 17.4642687 83.74006072 21.76724742 83 27 C81.39774634 30.24280821 79.06140793 32.19479398 76.1875 34.375 C72.77043572 35.35130408 69.54444557 35.11814819 66 35 C65.95875 35.804375 65.9175 36.60875 65.875 37.4375 C64.07170157 44.77950077 59.22646542 50.80910981 53 55 C40.83120601 60.61783134 27.70095515 62.5137268 14.8125 57.9375 C6.45328099 54.19425224 1.0649405 48.14667828 -3 40 C-4.69533082 34.72010454 -4.18597156 29.06516059 -4.18530273 23.58276367 C-4.18748908 21.57253845 -4.20566679 19.56286264 -4.22460938 17.55273438 C-4.22654297 16.27849609 -4.22847656 15.00425781 -4.23046875 13.69140625 C-4.23457764 12.52810791 -4.23868652 11.36480957 -4.24291992 10.16625977 C-4.00232705 7.03033119 -3.33775301 4.82561801 -2 2 C-1.34 2 -0.68 2 0 2 C0 1.34 0 0.68 0 0 Z " fill="#FDF2E0" transform="translate(42,64)"/>
<path d="M0 0 C21.12 0 42.24 0 64 0 C65.88343932 3.76687864 66.22057835 5.02958963 66 9 C66.58007812 8.95359375 67.16015625 8.9071875 67.7578125 8.859375 C73.41230827 8.59811117 76.52891958 9.18322403 81 13 C83.97617913 17.4642687 83.74006072 21.76724742 83 27 C81.39774634 30.24280821 79.06140793 32.19479398 76.1875 34.375 C72.77043572 35.35130408 69.54444557 35.11814819 66 35 C65.95875 35.804375 65.9175 36.60875 65.875 37.4375 C64.07170157 44.77950077 59.22646542 50.80910981 53 55 C40.83120601 60.61783134 27.70095515 62.5137268 14.8125 57.9375 C6.45328099 54.19425224 1.0649405 48.14667828 -3 40 C-4.69533082 34.72010454 -4.18597156 29.06516059 -4.18530273 23.58276367 C-4.18748908 21.57253845 -4.20566679 19.56286264 -4.22460938 17.55273438 C-4.22654297 16.27849609 -4.22847656 15.00425781 -4.23046875 13.69140625 C-4.23457764 12.52810791 -4.23868652 11.36480957 -4.24291992 10.16625977 C-4.00232705 7.03033119 -3.33775301 4.82561801 -2 2 C-1.34 2 -0.68 2 0 2 C0 1.34 0 0.68 0 0 Z M3 8 C2.88228283 11.79139846 2.81224802 15.58231735 2.75 19.375 C2.71648438 20.43589844 2.68296875 21.49679688 2.6484375 22.58984375 C2.54380295 31.11755918 4.10571813 38.41381992 9.25 45.375 C15.62016426 51.45561134 21.82208607 52.6490771 30.4375 52.5 C31.32759766 52.51546875 32.21769531 52.5309375 33.13476562 52.546875 C40.49690219 52.50385302 46.51860917 50.80871532 52.3046875 46.140625 C52.82289062 45.51671875 53.34109375 44.8928125 53.875 44.25 C54.40867188 43.63640625 54.94234375 43.0228125 55.4921875 42.390625 C60.31936765 34.73716839 60.38456849 27.8226045 60.1875 19 C60.17396484 17.84371094 60.16042969 16.68742187 60.14648438 15.49609375 C60.11137044 12.66356996 60.06219 9.83203693 60 7 C52.36450914 6.97468784 44.72902905 6.95714912 37.09350586 6.94506836 C34.49486893 6.94003319 31.89623485 6.9332047 29.29760742 6.92456055 C25.56688741 6.91245938 21.83620478 6.90676359 18.10546875 6.90234375 C16.93976852 6.89718246 15.7740683 6.89202118 14.57304382 6.88670349 C13.49214981 6.88662796 12.4112558 6.88655243 11.29760742 6.88647461 C10.34496506 6.884254 9.39232269 6.88203339 8.41081238 6.87974548 C5.85526502 6.89903818 5.85526502 6.89903818 3 8 Z " fill="#E47220" transform="translate(42,64)"/>
<path d="M0 0 C2.625 2.0625 2.625 2.0625 3.625 3.0625 C4.08998599 10.03728992 4.08998599 10.03728992 1.625 13.0625 C-1.5 13.8125 -1.5 13.8125 -4.375 14.0625 C-4.375 12.7425 -4.375 11.4225 -4.375 10.0625 C-3.715 9.7325 -3.055 9.4025 -2.375 9.0625 C-2.375 7.4125 -2.375 5.7625 -2.375 4.0625 C-5.29134129 3.8122843 -5.29134129 3.8122843 -8.375 4.0625 C-11.08746281 8.13119421 -10.76856635 11.29783498 -10.375 16.0625 C-9.86459656 18.97252521 -9.86459656 18.97252521 -8.375 21.0625 C-4.36877503 23.53693307 0.03975157 23.53746597 4.625 23.0625 C5.553125 22.7325 6.48125 22.4025 7.4375 22.0625 C12.13798324 20.58783859 16.73685571 20.90594022 21.625 21.0625 C22.12 23.0425 22.12 23.0425 22.625 25.0625 C21.51125 25.35125 20.3975 25.64 19.25 25.9375 C15.62208908 26.75491329 15.62208908 26.75491329 13.625 29.0625 C16.87679812 31.27963508 20.0463696 33.41082443 23.625 35.0625 C23.295 36.7125 22.965 38.3625 22.625 40.0625 C19.75 40.1875 19.75 40.1875 16.625 40.0625 C15.965 39.4025 15.305 38.7425 14.625 38.0625 C11.16296413 37.67782935 9.27140542 37.64321 6.3125 39.5625 C2.50968336 41.68500231 -1.10019971 41.65133653 -5.375 41.0625 C-6.71922532 40.41807738 -8.05374218 39.7527898 -9.375 39.0625 C-12.41711431 38.6457448 -12.41711431 38.6457448 -15.375 39.0625 C-15.84421875 39.55492187 -16.3134375 40.04734375 -16.796875 40.5546875 C-18.80464615 42.4730035 -19.82076159 42.49514737 -22.5625 42.5 C-27.64599874 42.35832872 -31.02269343 40.5947511 -35.375 38.0625 C-35.045 36.4125 -34.715 34.7625 -34.375 33.0625 C-33.385 33.0625 -32.395 33.0625 -31.375 33.0625 C-31.375 32.4025 -31.375 31.7425 -31.375 31.0625 C-33.355 31.0625 -35.335 31.0625 -37.375 31.0625 C-36.715 29.0825 -36.055 27.1025 -35.375 25.0625 C-34.281875 25.02125 -33.18875 24.98 -32.0625 24.9375 C-28.25678478 24.46013951 -28.25678478 24.46013951 -26.625 21.625 C-25.3965604 18.29276662 -25.3965604 18.29276662 -24.78125 15.72265625 C-22.84564099 8.24521431 -19.65532408 2.63069445 -12.875 -1.4375 C-7.79683224 -2.45313355 -4.57955976 -2.62900653 0 0 Z " fill="#FDEFD9" transform="translate(77.375,18.9375)"/>
<path d="M0 0 C21.12 0 42.24 0 64 0 C64.495 1.98 64.495 1.98 65 4 C64.34 4.99 63.68 5.98 63 7 C60.48165894 7.39872742 60.48165894 7.39872742 57.26513672 7.43237305 C56.06404266 7.45216721 54.86294861 7.47196136 53.62545776 7.49235535 C51.67230148 7.50194023 51.67230148 7.50194023 49.6796875 7.51171875 C48.3373143 7.52855912 46.99495694 7.54670849 45.65261841 7.56611633 C42.11811266 7.61369307 38.58367107 7.64345225 35.0489502 7.66955566 C31.44266165 7.69932288 27.83658997 7.74570383 24.23046875 7.79101562 C17.15362738 7.87871135 10.07731422 7.93858704 3 8 C3.33 18.89 3.66 29.78 4 41 C2.35 40.34 0.7 39.68 -1 39 C-1 37.35 -1 35.7 -1 34 C-1.66 34 -2.32 34 -3 34 C-3 23.77 -3 13.54 -3 3 C-2.01 2.67 -1.02 2.34 0 2 C0 1.34 0 0.68 0 0 Z " fill="#EC6509" transform="translate(42,64)"/>
<path d="M0 0 C0 1.65 0 3.3 0 5 C0.58007812 4.95359375 1.16015625 4.9071875 1.7578125 4.859375 C7.41230827 4.59811117 10.52891958 5.18322403 15 9 C17.97617913 13.4642687 17.74006072 17.76724742 17 23 C15.04695877 26.9527687 12.03977171 29.33871707 8 31 C5.421875 31.4140625 5.421875 31.4140625 2.75 31.625 C1.85796875 31.69976562 0.9659375 31.77453125 0.046875 31.8515625 C-0.62859375 31.90054688 -1.3040625 31.94953125 -2 32 C-2.33 32.99 -2.66 33.98 -3 35 C-6.16605486 30.25091772 -5.33385215 25.13514404 -5.31567383 19.54833984 C-5.31251076 17.50694546 -5.33599127 15.46699681 -5.36132812 13.42578125 C-5.36197266 12.14058594 -5.36261719 10.85539062 -5.36328125 9.53125 C-5.36626221 8.35111328 -5.36924316 7.17097656 -5.37231445 5.95507812 C-5 3 -5 3 -3.60229492 1.09179688 C-2 0 -2 0 0 0 Z " fill="#E66810" transform="translate(108,68)"/>
<path d="M0 0 C2.625 2.0625 2.625 2.0625 3.625 3.0625 C4.08998599 10.03728992 4.08998599 10.03728992 1.625 13.0625 C-1.5 13.8125 -1.5 13.8125 -4.375 14.0625 C-4.375 12.7425 -4.375 11.4225 -4.375 10.0625 C-3.715 9.7325 -3.055 9.4025 -2.375 9.0625 C-2.375 7.4125 -2.375 5.7625 -2.375 4.0625 C-5.29134129 3.8122843 -5.29134129 3.8122843 -8.375 4.0625 C-11.08746281 8.13119421 -10.76856635 11.29783498 -10.375 16.0625 C-9.86459656 18.97252521 -9.86459656 18.97252521 -8.375 21.0625 C-4.36877503 23.53693307 0.03975157 23.53746597 4.625 23.0625 C5.553125 22.7325 6.48125 22.4025 7.4375 22.0625 C12.13798324 20.58783859 16.73685571 20.90594022 21.625 21.0625 C22.12 23.0425 22.12 23.0425 22.625 25.0625 C21.9959375 25.09988281 21.366875 25.13726562 20.71875 25.17578125 C16.37341864 25.50953411 12.53578159 25.92064602 8.5 27.625 C3.23474179 29.77993431 -1.18740893 29.86181212 -6.625 27.875 C-11.66676121 24.55202102 -13.87102768 20.84700891 -15.375 15.0625 C-15.72247254 12.73123031 -16.05752071 10.39804329 -16.375 8.0625 C-16.76171875 9.24328125 -17.1484375 10.4240625 -17.546875 11.640625 C-18.07229698 13.19812586 -18.59837313 14.75540613 -19.125 16.3125 C-19.37765625 17.08980469 -19.6303125 17.86710937 -19.890625 18.66796875 C-21.35253913 22.94406759 -22.53552094 26.3691341 -26.375 29.0625 C-28.734375 29.453125 -28.734375 29.453125 -31.125 29.3125 C-31.92421875 29.27640625 -32.7234375 29.2403125 -33.546875 29.203125 C-34.45179687 29.13351563 -34.45179687 29.13351563 -35.375 29.0625 C-35.375 27.7425 -35.375 26.4225 -35.375 25.0625 C-34.281875 25.02125 -33.18875 24.98 -32.0625 24.9375 C-28.25678478 24.46013951 -28.25678478 24.46013951 -26.625 21.625 C-25.3965604 18.29276662 -25.3965604 18.29276662 -24.78125 15.72265625 C-22.84564099 8.24521431 -19.65532408 2.63069445 -12.875 -1.4375 C-7.79683224 -2.45313355 -4.57955976 -2.62900653 0 0 Z " fill="#DE7529" transform="translate(77.375,18.9375)"/>
<path d="M0 0 C3.94132873 0.67863938 6.91749916 2.40370406 10.359375 4.40625 C10.029375 6.05625 9.699375 7.70625 9.359375 9.40625 C6.484375 9.53125 6.484375 9.53125 3.359375 9.40625 C2.699375 8.74625 2.039375 8.08625 1.359375 7.40625 C-2.10266087 7.02157935 -3.99421958 6.98696 -6.953125 8.90625 C-10.75594164 11.02875231 -14.36582471 10.99508653 -18.640625 10.40625 C-19.98485032 9.76182738 -21.31936718 9.0965398 -22.640625 8.40625 C-25.68273931 7.9894948 -25.68273931 7.9894948 -28.640625 8.40625 C-29.10984375 8.89867187 -29.5790625 9.39109375 -30.0625 9.8984375 C-32.07027115 11.8167535 -33.08638659 11.83889737 -35.828125 11.84375 C-40.91162374 11.70207872 -44.28831843 9.9385011 -48.640625 7.40625 C-48.640625 6.08625 -48.640625 4.76625 -48.640625 3.40625 C-43.015625 3.15625 -43.015625 3.15625 -39.640625 5.40625 C-36.00778799 5.9953587 -34.83749504 5.54320307 -31.765625 3.40625 C-27.98837108 0.98880749 -26.05026093 0.84502361 -21.640625 1.40625 C-19.95306367 2.37057076 -18.28396004 3.36835419 -16.640625 4.40625 C-14.140625 4.98958333 -14.140625 4.98958333 -11.640625 4.40625 C-10.898125 3.74625 -10.155625 3.08625 -9.390625 2.40625 C-6.0210339 -0.04436171 -4.07219703 -0.16398109 0 0 Z " fill="#E07527" transform="translate(90.640625,49.59375)"/>
<path d="M0 0 C0.66 0.66 1.32 1.32 2 2 C3.98821313 2.39764263 5.98944339 2.73775349 8 3 C7.01 3.99 6.02 4.98 5 6 C7.31 6.33 9.62 6.66 12 7 C12 7.33 12 7.66 12 8 C-7.8 8 -27.6 8 -48 8 C-47.01 7.67 -46.02 7.34 -45 7 C-45.33 5.68 -45.66 4.36 -46 3 C-45.43410156 3.15984375 -44.86820313 3.3196875 -44.28515625 3.484375 C-41.94715227 4.01192462 -39.83167451 4.20138732 -37.4375 4.25 C-36.67308594 4.27578125 -35.90867187 4.3015625 -35.12109375 4.328125 C-32.47333989 3.91852772 -31.78985329 2.91414865 -30 1 C-26.94359962 0.67485102 -24.84116691 0.56053321 -22.0859375 2 C-18.52319108 3.7079833 -14.86602729 3.47977677 -11 3 C-4.69111969 -0.52123552 -4.69111969 -0.52123552 0 0 Z " fill="#FDEBCE" transform="translate(92,56)"/>
<path d="M0 0 C3.18207231 2.30700243 4.73315367 3.64934704 5.5078125 7.5703125 C5.69544238 12.16099033 5.68562893 15.86105483 2.75 19.5625 C-2.36114212 24.09283051 -5.30375133 24.22320829 -12 24 C-11.67 23.34 -11.34 22.68 -11 22 C-8.69 22 -6.38 22 -4 22 C-4 21.01 -4 20.02 -4 19 C-6.31 19 -8.62 19 -11 19 C-11 14.05 -11 9.1 -11 4 C-6.6906014 4.7182331 -3.83675965 5.30731192 0 7 C0.12375 8.134375 0.2475 9.26875 0.375 10.4375 C0.58125 11.613125 0.7875 12.78875 1 14 C1.66 14.33 2.32 14.66 3 15 C3 12.03 3 9.06 3 6 C2.34 6 1.68 6 1 6 C0.67 4.02 0.34 2.04 0 0 Z " fill="#E26D1B" transform="translate(120,75)"/>
<path d="M0 0 C1 1 1 1 1.0625 3.5625 C1.041875 4.366875 1.02125 5.17125 1 6 C0.01 6.33 -0.98 6.66 -2 7 C-2 8.32 -2 9.64 -2 11 C-0.02 10.67 1.96 10.34 4 10 C3.195625 10.78375 2.39125 11.5675 1.5625 12.375 C-0.98690417 14.71982856 -0.98690417 14.71982856 -2 17 C-1.67 17.99 -1.34 18.98 -1 20 C-4.01488424 19.10368306 -5.71802222 18.32087126 -7.8125 15.9375 C-9.45165466 11.882749 -9.57985287 8.3166825 -9 4 C-7.01662181 -0.51769476 -4.67460664 -0.50810942 0 0 Z " fill="#FCECCF" transform="translate(75,22)"/>
<path d="M0 0 C21.12 0 42.24 0 64 0 C64.495 1.98 64.495 1.98 65 4 C64.13575409 3.83923477 63.27150818 3.67846954 62.381073 3.51283264 C59.17142671 3.02600157 56.14561611 2.84338908 52.90283203 2.79467773 C51.72206085 2.77473251 50.54128967 2.75478729 49.32473755 2.73423767 C48.06515228 2.71752518 46.80556702 2.70081268 45.5078125 2.68359375 C44.20673553 2.66281265 42.90565857 2.64203156 41.56515503 2.62062073 C38.12277281 2.56568884 34.6803337 2.51615348 31.237854 2.46777344 C27.71841427 2.41734613 24.19905614 2.3617714 20.6796875 2.30664062 C13.78652921 2.19941292 6.89329704 2.09789088 0 2 C0 1.34 0 0.68 0 0 Z " fill="#E38540" transform="translate(42,64)"/>
<path d="M0 0 C0.99 0.33 1.98 0.66 3 1 C4.00005304 4.00015912 4.11575585 5.97423756 4.09765625 9.10546875 C4.09443359 10.08837891 4.09121094 11.07128906 4.08789062 12.08398438 C4.07951172 13.10814453 4.07113281 14.13230469 4.0625 15.1875 C4.05798828 16.22326172 4.05347656 17.25902344 4.04882812 18.32617188 C4.0370401 20.88417266 4.02058515 23.44205733 4 26 C4.66 26 5.32 26 6 26 C6.33 28.97 6.66 31.94 7 35 C5.35 34.34 3.7 33.68 2 33 C2 31.35 2 29.7 2 28 C1.34 28 0.68 28 0 28 C0 18.76 0 9.52 0 0 Z " fill="#F06405" transform="translate(39,70)"/>
<path d="M0 0 C2.60847629 1.49745861 4.87028902 2.87028902 7 5 C7.46498599 11.97478992 7.46498599 11.97478992 5 15 C1.875 15.75 1.875 15.75 -1 16 C-1 14.68 -1 13.36 -1 12 C-0.34 11.67 0.32 11.34 1 11 C1 9.35 1 7.7 1 6 C-1.91634129 5.7497843 -1.91634129 5.7497843 -5 6 C-7.02350324 9.03525486 -7.32124018 10.19426202 -7.625 13.6875 C-7.69976562 14.49574219 -7.77453125 15.30398437 -7.8515625 16.13671875 C-7.90054688 16.75160156 -7.94953125 17.36648437 -8 18 C-8.33 18 -8.66 18 -9 18 C-9.02708567 16.39592672 -9.04643483 14.7917215 -9.0625 13.1875 C-9.07410156 12.29417969 -9.08570312 11.40085937 -9.09765625 10.48046875 C-9 8 -9 8 -8 5 C-4.4375 3.3125 -4.4375 3.3125 -1 2 C-5.02992782 2.55312735 -9.02022924 3.1558062 -13 4 C-9.17441993 -0.18992103 -5.55576048 -0.47082716 0 0 Z " fill="#DB7226" transform="translate(74,17)"/>
<path d="M0 0 C0.33 0 0.66 0 1 0 C1.02505615 0.86802246 1.0501123 1.73604492 1.07592773 2.63037109 C1.17099484 5.84713163 1.27023203 9.06372849 1.37231445 12.28027344 C1.41565846 13.6731259 1.45733396 15.06603131 1.49731445 16.45898438 C1.55502932 18.45976651 1.61921869 20.46035859 1.68359375 22.4609375 C1.72025146 23.66540527 1.75690918 24.86987305 1.79467773 26.11083984 C1.81052987 28.93996367 1.81052987 28.93996367 3 31 C3.33 30.34 3.66 29.68 4 29 C4.66 29 5.32 29 6 29 C4.3833652 35.03280791 2.83290538 38.950809 -2 43 C-2 41.35 -2 39.7 -2 38 C-2.99 38.66 -3.98 39.32 -5 40 C-7.1875 39.625 -7.1875 39.625 -9 39 C-7.79557292 37.69791667 -6.59114583 36.39583333 -5.38671875 35.09375 C-0.57306591 27.82581219 -0.48213751 20.46248833 -0.3125 12 C-0.27833984 10.84371094 -0.24417969 9.68742187 -0.20898438 8.49609375 C-0.12706892 5.66415954 -0.05773478 2.83251299 0 0 Z " fill="#E57324" transform="translate(102,71)"/>
<path d="M0 0 C1.04449911 3.13349732 0.93423645 3.98968256 0 7 C-1.32 7 -2.64 7 -4 7 C-4 7.66 -4 8.32 -4 9 C-8.67610927 11.24453245 -11.72873792 12.25101248 -17 12 C-17.33 12.33 -17.66 12.66 -18 13 C-21.1382345 13.24966567 -24.29049613 13.18521791 -27.4375 13.1875 C-28.32244141 13.19974609 -29.20738281 13.21199219 -30.11914062 13.22460938 C-30.96541016 13.22654297 -31.81167969 13.22847656 -32.68359375 13.23046875 C-33.46275146 13.23457764 -34.24190918 13.23868652 -35.04467773 13.24291992 C-37 13 -37 13 -39 11 C-38.43603516 10.97494385 -37.87207031 10.9498877 -37.29101562 10.92407227 C-34.69385118 10.80681699 -32.0969369 10.68468734 -29.5 10.5625 C-28.613125 10.52318359 -27.72625 10.48386719 -26.8125 10.44335938 C-21.49941671 10.18942525 -16.2458551 9.90610225 -11 9 C-9.4100567 7.07935207 -9.4100567 7.07935207 -9 5 C-8.34 5 -7.68 5 -7 5 C-7 4.34 -7 3.68 -7 3 C-3.535 1.515 -3.535 1.515 0 0 Z " fill="#F16302" transform="translate(100,108)"/>
<path d="M0 0 C19.47 0 38.94 0 59 0 C59 0.33 59 0.66 59 1 C30.785 1.495 30.785 1.495 2 2 C2 9.92 2 17.84 2 26 C1.34 26 0.68 26 0 26 C0 17.42 0 8.84 0 0 Z " fill="#DE772C" transform="translate(43,70)"/>
<path d="M0 0 C0.99386719 0.00902344 1.98773438 0.01804688 3.01171875 0.02734375 C4.15060547 0.04474609 4.15060547 0.04474609 5.3125 0.0625 C5.6425 1.3825 5.9725 2.7025 6.3125 4.0625 C5.6834375 4.09988281 5.054375 4.13726562 4.40625 4.17578125 C0.06091864 4.50953411 -3.77671841 4.92064602 -7.8125 6.625 C-11.96502148 8.34328475 -15.20786622 8.44212998 -19.6875 8.0625 C-20.6775 7.4025 -21.6675 6.7425 -22.6875 6.0625 C-17.2425 5.5675 -17.2425 5.5675 -11.6875 5.0625 C-14.3275 4.7325 -16.9675 4.4025 -19.6875 4.0625 C-19.6875 3.7325 -19.6875 3.4025 -19.6875 3.0625 C-18.92824219 2.92972656 -18.16898437 2.79695313 -17.38671875 2.66015625 C-16.39285156 2.48355469 -15.39898437 2.30695312 -14.375 2.125 C-13.38886719 1.95097656 -12.40273437 1.77695312 -11.38671875 1.59765625 C-3.14202335 -0.03696498 -3.14202335 -0.03696498 0 0 Z " fill="#DD823F" transform="translate(93.6875,39.9375)"/>
<path d="M0 0 C1.4606285 2.64738916 2 3.89448334 2 7 C2.66 7.66 3.32 8.32 4 9 C4 11.66666667 4 14.33333333 4 17 C2.68 17.33 1.36 17.66 0 18 C0 16.35 0 14.7 0 13 C-3.63 11.35 -7.26 9.7 -11 8 C-8 4 -8 4 -4.3125 3.25 C-3.219375 3.1675 -2.12625 3.085 -1 3 C-0.67 2.01 -0.34 1.02 0 0 Z " fill="#FDF1DB" transform="translate(100,41)"/>
<path d="M0 0 C0.33 0 0.66 0 1 0 C1 8.91 1 17.82 1 27 C1.66 27 2.32 27 3 27 C3 28.65 3 30.3 3 32 C4.32 32.33 5.64 32.66 7 33 C7 30.36 7 27.72 7 25 C9 28 9 28 10.4375 31.4375 C11.73429017 34.39418158 12.94540889 36.5540582 15 39 C14.236875 38.690625 13.47375 38.38125 12.6875 38.0625 C10.81210323 37.32106407 8.91315348 36.63771783 7 36 C7 36.66 7 37.32 7 38 C6.01 38 5.02 38 4 38 C0.25104501 32.80913925 -0.12523388 28.55332416 -0.09765625 22.265625 C-0.09443359 20.97011719 -0.09121094 19.67460938 -0.08789062 18.33984375 C-0.07953598 16.97656183 -0.07107104 15.61328058 -0.0625 14.25 C-0.05748168 12.87109535 -0.05291935 11.49218896 -0.04882812 10.11328125 C-0.03704093 6.74214341 -0.02058635 3.37109372 0 0 Z " fill="#E88035" transform="translate(38,71)"/>
<path d="M0 0 C0.33 0 0.66 0 1 0 C1.06058594 0.71027344 1.12117188 1.42054687 1.18359375 2.15234375 C1.26738281 3.07144531 1.35117188 3.99054688 1.4375 4.9375 C1.51871094 5.85402344 1.59992188 6.77054687 1.68359375 7.71484375 C1.76044976 9.96159732 1.76044976 9.96159732 3 11 C5.32817964 11.36760731 7.6618385 11.70241581 10 12 C10 12.99 10 13.98 10 15 C8.865625 15.12375 7.73125 15.2475 6.5625 15.375 C4.7990625 15.684375 4.7990625 15.684375 3 16 C2.67 16.66 2.34 17.32 2 18 C1.34 18 0.68 18 0 18 C-0.33 18.99 -0.66 19.98 -1 21 C-3.72031972 16.91952042 -3.51736719 13.79127009 -3 9 C-2.19509633 5.91531137 -1.17622574 2.96156839 0 0 Z M10 11 C12 12 12 12 12 12 Z " fill="#F36406" transform="translate(106,82)"/>
<path d="M0 0 C5 0 5 0 8 2 C8.4375 4.875 8.4375 4.875 8 8 C6.25 10.375 6.25 10.375 4 12 C2.68 12 1.36 12 0 12 C0 8.04 0 4.08 0 0 Z " fill="#FDF3DA" transform="translate(110,80)"/>
<path d="M0 0 C0 0.99 0 1.98 0 3 C-5.25714286 7 -5.25714286 7 -8 7 C-8.4640625 8.3921875 -8.4640625 8.3921875 -8.9375 9.8125 C-9.625 11.875 -10.3125 13.9375 -11 16 C-11.99 16.33 -12.98 16.66 -14 17 C-14 15.68 -14 14.36 -14 13 C-14.66 13 -15.32 13 -16 13 C-15.34 10.36 -14.68 7.72 -14 5 C-13.32453125 4.89042969 -12.6490625 4.78085938 -11.953125 4.66796875 C-10.61507812 4.43013672 -10.61507812 4.43013672 -9.25 4.1875 C-8.36828125 4.03667969 -7.4865625 3.88585937 -6.578125 3.73046875 C-3.8089089 2.94585752 -2.1740599 1.85404641 0 0 Z " fill="#FCE7CC" transform="translate(122,94)"/>
<path d="M0 0 C1.9375 2.125 1.9375 2.125 1.9375 5.125 C-1.02425123 4.51222388 -2.44308783 3.87127478 -5.0625 2.125 C-9.60781422 1.90506544 -13.62840901 2.01647725 -18.0625 3.125 C-17.875 1.25 -17.875 1.25 -17.0625 -0.875 C-11.7697936 -4.34833858 -5.12088095 -3.13523324 0 0 Z " fill="#D47D39" transform="translate(67.0625,83.875)"/>
<path d="M0 0 C0.33 0 0.66 0 1 0 C1.09796875 0.70125 1.1959375 1.4025 1.296875 2.125 C2.29974164 8.48801593 3.82661531 13.39368706 7 19 C5.06640625 18.6875 5.06640625 18.6875 3 18 C2.29618843 16.01276732 1.6288189 14.01222047 1 12 C0.01 11.67 -0.98 11.34 -2 11 C-2.144375 11.78375 -2.28875 12.5675 -2.4375 13.375 C-3 16 -3 16 -4 18 C-4.66 18 -5.32 18 -6 18 C-5.31040267 14.12101499 -4.25091639 10.48435333 -3 6.75 C-2.649375 5.69296875 -2.29875 4.6359375 -1.9375 3.546875 C-1 1 -1 1 0 0 Z " fill="#FEE9C6" transform="translate(61,26)"/>
<path d="M0 0 C4.3782512 -0.02469081 8.75646567 -0.04285557 13.13476562 -0.05493164 C14.62468166 -0.05996514 16.11459274 -0.06679242 17.60449219 -0.07543945 C19.74415304 -0.08754805 21.88374868 -0.09323807 24.0234375 -0.09765625 C25.31169434 -0.10289307 26.59995117 -0.10812988 27.92724609 -0.11352539 C31 0 31 0 33 1 C32.67 1.99 32.34 2.98 32 4 C31.01 4 30.02 4 29 4 C29 3.34 29 2.68 29 2 C19.1 2 9.2 2 -1 2 C-0.67 1.34 -0.34 0.68 0 0 Z " fill="#F36301" transform="translate(73,67)"/>
<path d="M0 0 C5.54156171 2.82115869 5.54156171 2.82115869 6.875 6.25 C6.91625 6.8275 6.9575 7.405 7 8 C4.4800269 7.5500048 3.11819916 7.0984993 1.125 5.4375 C-3.13208477 2.55770736 -8.20941333 4.0875073 -13 5 C-12 2 -12 2 -10.4375 0.8125 C-6.92110033 -0.35963322 -3.6341396 -0.57197591 0 0 Z " fill="#D67B3A" transform="translate(87,84)"/>
<path d="M0 0 C0.33 0.66 0.66 1.32 1 2 C-1.64 2.66 -4.28 3.32 -7 4 C-7 9.28 -7 14.56 -7 20 C-7.99 19.67 -8.98 19.34 -10 19 C-10.07347656 17.73542969 -10.07347656 17.73542969 -10.1484375 16.4453125 C-10.22320312 15.34960938 -10.29796875 14.25390625 -10.375 13.125 C-10.44460937 12.03445312 -10.51421875 10.94390625 -10.5859375 9.8203125 C-10.73253491 6.86953526 -10.73253491 6.86953526 -13 5 C-10.74037349 0.48074698 -4.66953512 -0.42450319 0 0 Z " fill="#EB6409" transform="translate(73,18)"/>
<path d="M0 0 C0 3 0 3 -1.5625 5 C-2.2740625 5.99 -2.2740625 5.99 -3 7 C-2.67 7.99 -2.34 8.98 -2 10 C1.465 9.505 1.465 9.505 5 9 C3.9375 10.5625 3.9375 10.5625 2 12 C-2.60868654 11.73913095 -6.68016889 10.58042602 -11 9 C-10.01 8.67 -9.02 8.34 -8 8 C-8 7.34 -8 6.68 -8 6 C-9.98 6 -11.96 6 -14 6 C-13.67 4.35 -13.34 2.7 -13 1 C-12.67 1.99 -12.34 2.98 -12 4 C-10.56138706 3.91253716 -9.12402492 3.80434652 -7.6875 3.6875 C-6.88699219 3.62949219 -6.08648437 3.57148437 -5.26171875 3.51171875 C-2.63727666 2.91793306 -1.69179328 2.04219706 0 0 Z " fill="#F7DBBB" transform="translate(54,44)"/>
<path d="M0 0 C3.74624873 0.38754297 5.61611308 1.18671861 8.625 3.375 C7.635 3.705 6.645 4.035 5.625 4.375 C6.615 6.025 7.605 7.675 8.625 9.375 C7.75875 9.045 6.8925 8.715 6 8.375 C2.03216321 7.19934465 -1.56544361 6.47022181 -5.375 8.375 C-5.045 7.385 -4.715 6.395 -4.375 5.375 C-1.76637376 4.34368265 0.86547635 3.94442551 3.625 3.375 C0.325 3.375 -2.975 3.375 -6.375 3.375 C-3.375 0.375 -3.375 0.375 0 0 Z " fill="#E07831" transform="translate(65.375,50.625)"/>
<path d="M0 0 C1.13566406 0.32484375 2.27132812 0.6496875 3.44140625 0.984375 C7.98493075 2.11600751 12.27248936 2.30573727 16.9375 2.25 C17.72366699 2.24613281 18.50983398 2.24226563 19.31982422 2.23828125 C24.78900582 2.15666859 29.73395836 1.56030863 35 0 C34.1875 1.9375 34.1875 1.9375 33 4 C27.85126991 5.71624336 22.43778074 4.89880614 17.0625 4.6875 C15.27295898 4.63432617 15.27295898 4.63432617 13.44726562 4.58007812 C12.30064453 4.53689453 11.15402344 4.49371094 9.97265625 4.44921875 C8.39883179 4.39254028 8.39883179 4.39254028 6.79321289 4.3347168 C4.05955614 4.00713674 2.34383433 3.40039089 0 2 C0 1.34 0 0.68 0 0 Z " fill="#FDE9C6" transform="translate(56,121)"/>
<path d="M0 0 C1.32 0.33 2.64 0.66 4 1 C3.01 1 2.02 1 1 1 C1 4.96 1 8.92 1 13 C4.00571856 12.61147442 4.00571856 12.61147442 7 11 C8.18275852 8.31689039 8.52711756 5.9318711 9 3 C9.66 3 10.32 3 11 3 C11.61770762 11.18462594 11.61770762 11.18462594 9.4375 14.0625 C7 15 7 15 0 15 C0 10.05 0 5.1 0 0 Z " fill="#EA873E" transform="translate(109,79)"/>
<path d="M0 0 C1 1 1 1 1.0625 3.5625 C1.041875 4.366875 1.02125 5.17125 1 6 C0.01 6.33 -0.98 6.66 -2 7 C-2.33 5.68 -2.66 4.36 -3 3 C-3.99 3.495 -3.99 3.495 -5 4 C-5.68931344 6.34907875 -5.68931344 6.34907875 -6.125 9.0625 C-6.29257813 9.98160156 -6.46015625 10.90070312 -6.6328125 11.84765625 C-6.75398438 12.55792969 -6.87515625 13.26820312 -7 14 C-7.66 13.67 -8.32 13.34 -9 13 C-9.45892351 5.04532578 -9.45892351 5.04532578 -7.875 1.4375 C-5.20923937 -0.60624981 -3.26525064 -0.35491855 0 0 Z " fill="#FCE6C6" transform="translate(75,22)"/>
<path d="M0 0 C0 0.66 0 1.32 0 2 C-1.32 2.33 -2.64 2.66 -4 3 C-3.67 3.66 -3.34 4.32 -3 5 C-9.27 5 -15.54 5 -22 5 C-21.67 4.34 -21.34 3.68 -21 3 C-18.671875 2.65625 -18.671875 2.65625 -15.75 2.5 C-10.16905299 2.19832719 -5.55796957 -0.31759826 0 0 Z " fill="#FDF8E3" transform="translate(92,58)"/>
<path d="M0 0 C1.04449911 3.13349732 0.93423645 3.98968256 0 7 C-1.32 7 -2.64 7 -4 7 C-4 7.66 -4 8.32 -4 9 C-5.65 9.33 -7.3 9.66 -9 10 C-9.33 8.68 -9.66 7.36 -10 6 C-9.01 5.67 -8.02 5.34 -7 5 C-7 4.34 -7 3.68 -7 3 C-4.69 2.01 -2.38 1.02 0 0 Z " fill="#EB660B" transform="translate(100,108)"/>
<path d="M0 0 C0.66 0 1.32 0 2 0 C2 1.32 2 2.64 2 4 C-4.78743178 6.81552726 -10.68889006 7.3689719 -18 7 C-17.01 6.67 -16.02 6.34 -15 6 C-15.33 4.68 -15.66 3.36 -16 2 C-15.43410156 2.15984375 -14.86820313 2.3196875 -14.28515625 2.484375 C-11.94715227 3.01192462 -9.83167451 3.20138732 -7.4375 3.25 C-6.67308594 3.27578125 -5.90867187 3.3015625 -5.12109375 3.328125 C-2.48401942 2.9201798 -1.7543666 1.93234582 0 0 Z " fill="#FDEAC9" transform="translate(62,57)"/>
<path d="M0 0 C0.845625 0.144375 1.69125 0.28875 2.5625 0.4375 C4.97002679 0.83145893 7.38885881 1.15937724 9.8125 1.4375 C10.864375 1.623125 11.91625 1.80875 13 2 C13.33 2.66 13.66 3.32 14 4 C11.67404054 5.16297973 10.21276769 5.16600691 7.625 5.1875 C6.46871094 5.20876953 6.46871094 5.20876953 5.2890625 5.23046875 C2.78165112 4.97801607 1.16738098 4.25193467 -1 3 C-0.67 2.01 -0.34 1.02 0 0 Z " fill="#E56910" transform="translate(44,55)"/>
<path d="M0 0 C0 0.99 0 1.98 0 3 C-2.41721193 4.52194825 -3.73512258 5.01261321 -6.625 4.875 C-9 4 -9 4 -10.3125 1.9375 C-10.539375 1.298125 -10.76625 0.65875 -11 0 C-3.375 -1.125 -3.375 -1.125 0 0 Z " fill="#E5660E" transform="translate(82,55)"/>
<path d="M0 0 C1.33597652 0.80814651 2.668725 1.62163181 4 2.4375 C5.11375 3.11619141 5.11375 3.11619141 6.25 3.80859375 C6.8275 4.20175781 7.405 4.59492187 8 5 C8 5.33 8 5.66 8 6 C3.05 7.485 3.05 7.485 -2 9 C-2 7.02 -2 5.04 -2 3 C-1.34 3 -0.68 3 0 3 C0 2.01 0 1.02 0 0 Z " fill="#F26304" transform="translate(106,72)"/>
<path d="M0 0 C0.33 0.66 0.66 1.32 1 2 C-1.17241963 4.62690073 -2.32677023 5.88879153 -5.74902344 6.45410156 C-6.77543945 6.4331543 -7.80185547 6.41220703 -8.859375 6.390625 C-9.97441406 6.37773438 -11.08945313 6.36484375 -12.23828125 6.3515625 C-13.97658203 6.30128906 -13.97658203 6.30128906 -15.75 6.25 C-16.92433594 6.23195313 -18.09867188 6.21390625 -19.30859375 6.1953125 C-22.2065534 6.1481912 -25.10286418 6.08241305 -28 6 C-28 5.67 -28 5.34 -28 5 C-26.09927734 4.96132812 -26.09927734 4.96132812 -24.16015625 4.921875 C-11.56953096 4.6149518 -11.56953096 4.6149518 0 0 Z " fill="#E99150" transform="translate(92,111)"/>
<path d="M0 0 C0.33 0 0.66 0 1 0 C1 8.91 1 17.82 1 27 C1.66 27 2.32 27 3 27 C3 27.99 3 28.98 3 30 C2.01 29.67 1.02 29.34 0 29 C0 19.43 0 9.86 0 0 Z " fill="#DD7326" transform="translate(38,71)"/>
<path d="M0 0 C0.66 0.33 1.32 0.66 2 1 C1.57620166 3.10696905 1.1354597 5.21053527 0.6875 7.3125 C0.44386719 8.48425781 0.20023438 9.65601563 -0.05078125 10.86328125 C-0.96393655 13.88082736 -1.55874874 15.10580785 -4 17 C-5.22160223 13.3351933 -4.63002724 12.51368316 -3.125 9.0625 C-1.8269267 6.05333007 -0.69920234 3.20591713 0 0 Z " fill="#FEEDCA" transform="translate(53,26)"/>
<path d="M0 0 C0.99 0 1.98 0 3 0 C1.25 7.625 1.25 7.625 -1 11 C-1.66 10.01 -2.32 9.02 -3 8 C-1.55555556 1.55555556 -1.55555556 1.55555556 0 0 Z " fill="#FDF8E8" transform="translate(71,24)"/>
<path d="M0 0 C3.78786597 0.5260925 6.17152224 1.38103911 9 4 C9 4.66 9 5.32 9 6 C2.25 5.125 2.25 5.125 0 4 C0 2.68 0 1.36 0 0 Z " fill="#EA680C" transform="translate(45,107)"/>
<path d="M0 0 C0 0.33 0 0.66 0 1 C-1.65 1 -3.3 1 -5 1 C-5 1.66 -5 2.32 -5 3 C-3.68 3.33 -2.36 3.66 -1 4 C-4.63 4.66 -8.26 5.32 -12 6 C-11.67 4.68 -11.34 3.36 -11 2 C-7.3382625 -0.09242143 -4.15467129 -0.19324053 0 0 Z " fill="#D58649" transform="translate(61,81)"/>
<path d="M0 0 C0.33 1.32 0.66 2.64 1 4 C-5.0546875 4.1953125 -5.0546875 4.1953125 -7 4 C-7.66 3.34 -8.32 2.68 -9 2 C-5.5647952 -0.29013653 -4.014669 -0.17842973 0 0 Z " fill="#E66407" transform="translate(91,51)"/>
<path d="M0 0 C1.9375 0.8125 1.9375 0.8125 4 2 C4.33 2.99 4.66 3.98 5 5 C7.31 5 9.62 5 12 5 C11.67 5.66 11.34 6.32 11 7 C8.03 7 5.06 7 2 7 C1.34 4.69 0.68 2.38 0 0 Z " fill="#F8CDA0" transform="translate(106,66)"/>
<path d="M0 0 C1.65322266 0.01740234 1.65322266 0.01740234 3.33984375 0.03515625 C4.44457031 0.04417969 5.54929687 0.05320313 6.6875 0.0625 C7.54214844 0.07410156 8.39679688 0.08570313 9.27734375 0.09765625 C9.27734375 0.42765625 9.27734375 0.75765625 9.27734375 1.09765625 C8.51808594 1.23042969 7.75882813 1.36320312 6.9765625 1.5 C5.98269531 1.67660156 4.98882812 1.85320313 3.96484375 2.03515625 C2.97871094 2.20917969 1.99257812 2.38320313 0.9765625 2.5625 C-1.80454838 3.05512472 -1.80454838 3.05512472 -4.72265625 4.09765625 C-6.11705289 4.16431001 -7.514355 4.18303824 -8.91015625 4.16015625 C-10.79734375 4.12921875 -10.79734375 4.12921875 -12.72265625 4.09765625 C-12.72265625 3.76765625 -12.72265625 3.43765625 -12.72265625 3.09765625 C-11.76552734 2.89849609 -11.76552734 2.89849609 -10.7890625 2.6953125 C-9.96277344 2.51871094 -9.13648437 2.34210937 -8.28515625 2.16015625 C-7.46144531 1.98613281 -6.63773437 1.81210937 -5.7890625 1.6328125 C-3.00030359 0.91058193 -3.09142665 0.11088331 0 0 Z " fill="#FEEAC7" transform="translate(86.72265625,38.90234375)"/>
<path d="M0 0 C0.99 0 1.98 0 3 0 C2.67 3.3 2.34 6.6 2 10 C1.01 10 0.02 10 -1 10 C-1.125 2.25 -1.125 2.25 0 0 Z " fill="#DF6C1D" transform="translate(55,27)"/>
<path d="M0 0 C0.33 0.66 0.66 1.32 1 2 C1.66 2 2.32 2 3 2 C3 4.97 3 7.94 3 11 C2.01 10.67 1.02 10.34 0 10 C-0.19412181 8.52168779 -0.38012131 7.04230684 -0.5625 5.5625 C-0.66691406 4.73878906 -0.77132812 3.91507812 -0.87890625 3.06640625 C-0.91886719 2.38449219 -0.95882812 1.70257813 -1 1 C-0.67 0.67 -0.34 0.34 0 0 Z " fill="#F26403" transform="translate(120,79)"/>
<path d="M0 0 C1.18851563 0.10183594 2.37703125 0.20367187 3.6015625 0.30859375 C4.51679687 0.39238281 5.43203125 0.47617187 6.375 0.5625 C2.95405758 2.84312828 1.69312778 2.78175007 -2.3125 2.6875 C-3.80330078 2.66042969 -3.80330078 2.66042969 -5.32421875 2.6328125 C-6.08347656 2.60960937 -6.84273438 2.58640625 -7.625 2.5625 C-7.955 1.9025 -8.285 1.2425 -8.625 0.5625 C-5.68113377 -0.90943312 -3.25109964 -0.28686173 0 0 Z " fill="#E26613" transform="translate(78.625,43.4375)"/>
<path d="M0 0 C3.18666175 0.27953173 4.91798366 0.62000954 7.5625 2.3125 C4.40743858 3.24869813 1.59663498 3.4182123 -1.6875 3.375 C-2.57953125 3.36597656 -3.4715625 3.35695312 -4.390625 3.34765625 C-5.06609375 3.33605469 -5.7415625 3.32445312 -6.4375 3.3125 C-4.13464528 0.65966736 -3.72314367 0.33846761 0 0 Z " fill="#D87E38" transform="translate(65.4375,50.6875)"/>
<path d="M0 0 C1.8871875 0.0309375 1.8871875 0.0309375 3.8125 0.0625 C3.8125 0.7225 3.8125 1.3825 3.8125 2.0625 C1.06171116 2.97942961 -0.54698913 3.17136083 -3.375 3.125 C-5.2621875 3.0940625 -5.2621875 3.0940625 -7.1875 3.0625 C-7.1875 2.4025 -7.1875 1.7425 -7.1875 1.0625 C-4.43671116 0.14557039 -2.82801087 -0.04636083 0 0 Z " fill="#E56613" transform="translate(93.1875,40.9375)"/>
<path d="M0 0 C0.33 0 0.66 0 1 0 C1.1875 3.375 1.1875 3.375 1 7 C-2 9 -2 9 -4.1875 8.625 C-4.785625 8.41875 -5.38375 8.2125 -6 8 C-4.73046875 6.50260417 -3.4609375 5.00520833 -2.19140625 3.5078125 C-0.9121848 1.99405921 -0.9121848 1.99405921 0 0 Z " fill="#E47E30" transform="translate(99,102)"/>
<path d="M0 0 C0 0.66 0 1.32 0 2 C-3.61973402 3.31626692 -6.09567131 4 -10 4 C-9.67 3.01 -9.34 2.02 -9 1 C-6.04335481 -0.4783226 -3.25770263 -0.06032783 0 0 Z " fill="#D17027" transform="translate(84,85)"/>
<path d="M0 0 C0.66 0 1.32 0 2 0 C2 1.32 2 2.64 2 4 C0.56656 4.53190541 -0.87195367 5.05015258 -2.3125 5.5625 C-3.51326172 5.99755859 -3.51326172 5.99755859 -4.73828125 6.44140625 C-7 7 -7 7 -10 6 C-9.34 6 -8.68 6 -8 6 C-8 5.34 -8 4.68 -8 4 C-6.576875 3.566875 -6.576875 3.566875 -5.125 3.125 C-1.94788422 2.23174891 -1.94788422 2.23174891 0 0 Z " fill="#FADDB7" transform="translate(62,57)"/>
<path d="M0 0 C6.19887485 -0.37952295 10.4477112 0.1647887 16 3 C15.67 3.66 15.34 4.32 15 5 C13.68 4.67 12.36 4.34 11 4 C11 3.34 11 2.68 11 2 C7.04 2 3.08 2 -1 2 C-0.67 1.34 -0.34 0.68 0 0 Z " fill="#D97C38" transform="translate(84,50)"/>
<path d="M0 0 C2.28804937 1.65883579 3.56463437 2.62283307 5 5 C5.44207004 8.70298665 5.29251428 12.28831877 5 16 C4.67 16 4.34 16 4 16 C4 12.7 4 9.4 4 6 C3.01 6 2.02 6 1 6 C0.67 4.02 0.34 2.04 0 0 Z " fill="#DF8646" transform="translate(120,75)"/>
<path d="M0 0 C0.33 0.66 0.66 1.32 1 2 C2.98 2 4.96 2 7 2 C7 2.66 7 3.32 7 4 C3.7 4.66 0.4 5.32 -3 6 C-3 5.34 -3 4.68 -3 4 C-2.34 4 -1.68 4 -1 4 C-0.67 2.68 -0.34 1.36 0 0 Z " fill="#FCECCA" transform="translate(79,80)"/>
<path d="M0 0 C2.31 0 4.62 0 7 0 C7.33 0.99 7.66 1.98 8 3 C5.36 3 2.72 3 0 3 C0 2.01 0 1.02 0 0 Z " fill="#DA6818" transform="translate(42,45)"/>
<path d="M0 0 C0.66 0 1.32 0 2 0 C2.625 2.8125 2.625 2.8125 3 6 C2.01 7.485 2.01 7.485 1 9 C0.01 9 -0.98 9 -2 9 C-1.34 6.03 -0.68 3.06 0 0 Z " fill="#FDEACB" transform="translate(81,23)"/>
<path d="M0 0 C3.875 0.875 3.875 0.875 5 2 C6.32520503 2.68268138 7.65812182 3.3507041 9 4 C7.54364629 4.22174933 6.08477044 4.42698698 4.625 4.625 C3.81289062 4.74101563 3.00078125 4.85703125 2.1640625 4.9765625 C1.44992188 4.98429687 0.73578125 4.99203125 0 5 C-0.66 4.34 -1.32 3.68 -2 3 C-1.34 3 -0.68 3 0 3 C0 2.01 0 1.02 0 0 Z " fill="#F6DFC2" transform="translate(69,86)"/>
<path d="M0 0 C0.33 0.66 0.66 1.32 1 2 C-2.3 2.66 -5.6 3.32 -9 4 C-9 3.01 -9 2.02 -9 1 C-5.8035914 -0.06546953 -3.34252724 -0.07427838 0 0 Z " fill="#EE6407" transform="translate(69,53)"/>
<path d="M0 0 C1.32 0 2.64 0 4 0 C4 1.32 4 2.64 4 4 C2.02 4 0.04 4 -2 4 C-1.34 2.68 -0.68 1.36 0 0 Z " fill="#FBF6E6" transform="translate(76,49)"/>
<path d="M0 0 C2.475 0.99 2.475 0.99 5 2 C4.01 3.32 3.02 4.64 2 6 C0.68 5.34 -0.64 4.68 -2 4 C-2 3.34 -2 2.68 -2 2 C-1.34 2 -0.68 2 0 2 C0 1.34 0 0.68 0 0 Z " fill="#E17C34" transform="translate(69,40)"/>
<path d="M0 0 C1.58971965 2.38457948 2.86741593 4.6304124 4.125 7.1875 C4.47820312 7.90292969 4.83140625 8.61835937 5.1953125 9.35546875 C5.46085937 9.89816406 5.72640625 10.44085938 6 11 C4.078125 10.67578125 4.078125 10.67578125 2 10 C0.40155515 6.40349908 0 3.96602757 0 0 Z " fill="#FADCB4" transform="translate(62,34)"/>
<path d="M0 0 C0.66 0 1.32 0 2 0 C0.68775452 3.93673644 -0.91910327 6.22719294 -4 9 C-3.67 7.35 -3.34 5.7 -3 4 C-2.34 4 -1.68 4 -1 4 C-0.67 2.68 -0.34 1.36 0 0 Z " fill="#E27D35" transform="translate(104,105)"/>
<path d="M0 0 C2.64 0 5.28 0 8 0 C8.33 0.66 8.66 1.32 9 2 C5.62182575 2.84454356 3.32534757 3.10844919 0 2 C0 1.34 0 0.68 0 0 Z " fill="#D66E24" transform="translate(56,82)"/>
<path d="M0 0 C2.97 0 5.94 0 9 0 C9 1.32 9 2.64 9 4 C6.03 3.01 3.06 2.02 0 1 C0 0.67 0 0.34 0 0 Z " fill="#E57424" transform="translate(109,78)"/>
<path d="M0 0 C5.53846154 -0.36923077 5.53846154 -0.36923077 7.875 1.5 C8.24625 1.995 8.6175 2.49 9 3 C7.88625 2.979375 6.7725 2.95875 5.625 2.9375 C2.16784079 2.73619282 2.16784079 2.73619282 0 4 C0 2.68 0 1.36 0 0 Z " fill="#D2732C" transform="translate(42,53)"/>
<path d="M0 0 C2.31 0 4.62 0 7 0 C7.33 1.32 7.66 2.64 8 4 C6.02 4 4.04 4 2 4 C2.99 3.67 3.98 3.34 5 3 C5 2.34 5 1.68 5 1 C3.35 1 1.7 1 0 1 C0 0.67 0 0.34 0 0 Z " fill="#D37A38" transform="translate(92,40)"/>
<path d="M0 0 C0 0.33 0 0.66 0 1 C-4.32059823 2.09845718 -8.61667943 3.17812739 -13 4 C-9.09650503 -0.27525639 -5.61326496 -0.10591066 0 0 Z " fill="#DB8847" transform="translate(74,17)"/>
<path d="M0 0 C0.66 0 1.32 0 2 0 C2.125 2.875 2.125 2.875 2 6 C1.34 6.66 0.68 7.32 0 8 C-1.125 2.25 -1.125 2.25 0 0 Z " fill="#FBE7C5" transform="translate(116,82)"/>
<path d="M0 0 C2.97 0 5.94 0 9 0 C6 3 6 3 3.3125 3.1875 C2.1678125 3.0946875 2.1678125 3.0946875 1 3 C0.67 2.01 0.34 1.02 0 0 Z " fill="#FDE8C2" transform="translate(50,53)"/>
<path d="M0 0 C3.73487777 0.4979837 5.81237635 0.87491756 9 3 C8.01 3.66 7.02 4.32 6 5 C3.98079663 3.69593116 1.98075027 2.36176581 0 1 C0 0.67 0 0.34 0 0 Z " fill="#FCEFD6" transform="translate(65,45)"/>
<path d="M0 0 C0.33 0 0.66 0 1 0 C1.33 3.63 1.66 7.26 2 11 C0.68 11.33 -0.64 11.66 -2 12 C-1.34 8.04 -0.68 4.08 0 0 Z " fill="#FCDBB6" transform="translate(125,82)"/>
<path d="M0 0 C0.33 0 0.66 0 1 0 C1.33 2.64 1.66 5.28 2 8 C1.01 7.67 0.02 7.34 -1 7 C-1.04254356 5.00045254 -1.04080783 2.99958364 -1 1 C-0.67 0.67 -0.34 0.34 0 0 Z " fill="#E06811" transform="translate(64,30)"/>
</svg>
