<?xml version="1.0" encoding="UTF-8"?>
<svg version="1.1" xmlns="http://www.w3.org/2000/svg" width="1081" height="1081">
<path d="M0 0 C6.10028151 5.63353399 10.06852454 12.69554711 10.53125 21.06640625 C11.07853043 48.33771916 3.10732414 77.6587022 -15.62890625 98.0390625 C-20.14936558 102.16996699 -23.57268074 103.62779882 -29.6171875 103.359375 C-36.97793976 102.24211796 -43.26037154 94.40687984 -47.8046875 89.02734375 C-47.8046875 88.03734375 -47.8046875 87.04734375 -47.8046875 86.02734375 C-47.1034375 85.69863281 -46.4021875 85.36992187 -45.6796875 85.03125 C-29.87408584 77.10697417 -21.39755386 61.32826028 -15.8046875 45.02734375 C-11.55007147 31.73259887 -11.55007147 31.73259887 -11.8046875 18.02734375 C-15.15868528 15.79134523 -16.62003572 15.80660785 -20.51171875 16.4375 C-33.90169073 19.88193913 -45.01842032 30.80791317 -54.8046875 40.02734375 C-55.46855469 40.62675781 -56.13242187 41.22617187 -56.81640625 41.84375 C-69.39664666 53.65845854 -83.47898059 72.01798353 -84.2421875 89.71484375 C-84.10013447 94.5514113 -83.11291849 97.35153154 -79.8046875 101.02734375 C-76.53877485 103.95718744 -73.70161746 104.72173922 -69.41796875 105.53125 C-68.77233475 105.65327286 -68.12670074 105.77529572 -67.46150208 105.90101624 C-57.08011344 107.79043457 -46.57318826 109.01361064 -36.10668945 110.3269043 C-9.82666431 113.64627466 -9.82666431 113.64627466 -2.8046875 122.02734375 C-2.4746875 122.35734375 -2.1446875 122.68734375 -1.8046875 123.02734375 C-1.66482422 122.45628906 -1.52496094 121.88523437 -1.38085938 121.296875 C1.47869931 109.72991415 4.59782071 98.28654665 8.3203125 86.96484375 C8.64451172 85.96130859 8.96871094 84.95777344 9.30273438 83.92382812 C11.46351821 77.48530589 13.33022842 71.97803929 19.1328125 68.02734375 C26.31857252 65.36767933 35.31394887 68.59558367 42.1953125 71.02734375 C40.4297524 76.45607425 38.54608584 81.82433443 36.54296875 87.16967773 C33.04652564 96.54355044 29.81503072 105.99522732 26.80499268 115.53552246 C26.20603823 117.4309024 25.59797273 119.32339544 24.98974609 121.21582031 C24.62445801 122.38983398 24.25916992 123.56384766 23.8828125 124.7734375 C23.55667969 125.81169678 23.23054687 126.84995605 22.89453125 127.91967773 C22.11804216 131.37077046 22.07569579 134.50114297 22.1953125 138.02734375 C27.14265201 133.66527176 30.11460525 128.52317261 33.3828125 122.83984375 C33.94943604 121.8653125 34.51605957 120.89078125 35.09985352 119.88671875 C36.80791187 116.93899098 38.50288219 113.98406578 40.1953125 111.02734375 C40.68322266 110.18220215 41.17113281 109.33706055 41.67382812 108.46630859 C46.60100951 99.91691713 51.06932029 91.42452822 54.828125 82.29296875 C56.23071028 78.94279362 57.73411276 75.66944172 59.3203125 72.40234375 C59.77664063 71.46132813 60.23296875 70.5203125 60.703125 69.55078125 C63.07651752 65.53713841 64.97873512 63.3716581 69.5078125 62.08984375 C76.08359072 61.51368032 82.81882145 63.55776183 89.1953125 65.02734375 C88.58443392 70.37253135 86.77814723 74.7561426 84.6953125 79.65234375 C79.38267196 92.50041012 75.26976325 105.74409133 71.1953125 119.02734375 C70.85089111 120.14387329 70.85089111 120.14387329 70.49951172 121.28295898 C69.39351577 124.98244234 69.0065214 128.15712617 69.1953125 132.02734375 C80.24368271 127.38311733 85.76870788 112.18635267 90.12939453 101.80322266 C93.9280465 92.42130349 96.96484073 82.83189735 99.6953125 73.08984375 C100.0967749 71.67711182 100.0967749 71.67711182 100.50634766 70.23583984 C100.74401855 69.3536377 100.98168945 68.47143555 101.2265625 67.5625 C101.43861328 66.78269775 101.65066406 66.00289551 101.86914062 65.19946289 C102.23075918 62.79128901 102.01707453 61.30754282 101.1953125 59.02734375 C99.53678958 57.16929928 97.73709014 55.57119795 95.88671875 53.90625 C91.88538934 49.46135521 91.83843373 44.58055487 91.8828125 38.83984375 C91.88845215 38.08388916 91.8940918 37.32793457 91.89990234 36.54907227 C92.1104793 26.81562166 94.36157206 19.20622259 101.1953125 12.02734375 C106.96488115 7.7688526 113.19668126 7.273645 120.1953125 8.02734375 C124.46042591 9.34334528 126.80084434 11.39866011 129.1953125 15.21484375 C131.30976671 23.27620042 128.5085911 31.65062398 126.6328125 39.58984375 C126.39884766 40.59853516 126.16488281 41.60722656 125.92382812 42.64648438 C125.35222535 45.10787592 124.7759771 47.56807722 124.1953125 50.02734375 C125.33806641 50.17429687 125.33806641 50.17429687 126.50390625 50.32421875 C135.93486532 51.69000059 143.8365868 53.47635699 150.1953125 61.02734375 C153.97707982 68.59087839 150.82898677 78.26116555 148.3515625 85.765625 C147.16401141 89.30165473 145.93608635 92.82218264 144.6953125 96.33984375 C143.75915773 99.02047483 142.8291793 101.70274517 141.91345215 104.39042664 C141.34725409 106.04986398 140.76928355 107.70535024 140.17736816 109.35578918 C138.42488354 114.46145013 137.91579562 118.62859811 138.1953125 124.02734375 C139.64122203 123.31499839 141.07677352 122.58161037 142.5078125 121.83984375 C143.30832031 121.43378906 144.10882812 121.02773438 144.93359375 120.609375 C149.83270054 117.18253864 150.87323434 112.09576419 151.9921875 106.5078125 C152.31032912 105.0072953 152.62861278 103.50680821 152.94702148 102.00634766 C153.10951385 101.22430969 153.27200623 100.44227173 153.43942261 99.63653564 C170.37768807 18.55316001 170.37768807 18.55316001 195.37109375 1.546875 C202.29469819 -2.05635076 210.18558592 -2.17015971 217.5703125 0.15234375 C221.65558297 1.91395935 223.69556161 4.39134245 226.1953125 8.02734375 C235.23061158 35.13324098 212.63072024 67.44900851 201.17578125 90.59814453 C199.71036917 93.56257472 198.24955413 96.52923713 196.7890625 99.49609375 C196.34123413 100.39702759 195.89340576 101.29796143 195.43200684 102.22619629 C195.02067505 103.06227417 194.60934326 103.89835205 194.18554688 104.75976562 C193.82408569 105.48997925 193.46262451 106.22019287 193.09020996 106.97253418 C192.21666919 108.9783058 191.6578529 110.89292348 191.1953125 113.02734375 C203.52886398 105.69871171 211.68726142 95.41324265 220.1171875 84.078125 C222.98346276 80.24388546 226.04233515 76.62872357 229.1953125 73.02734375 C231.58608453 75.17964588 232.19475843 76.0254242 233.12890625 79.26171875 C233.2104143 83.88370443 231.72833177 86.548821 229.2578125 90.27734375 C228.84249268 90.93210693 228.42717285 91.58687012 227.99926758 92.26147461 C226.75539725 94.20067912 225.48268157 96.11680598 224.1953125 98.02734375 C223.54820312 98.99285156 222.90109375 99.95835937 222.234375 100.953125 C213.95876596 112.73801129 203.40856318 127.42071841 190.1953125 134.02734375 C190.75438807 138.36017945 192.41479676 141.93411734 194.2578125 145.84375 C197.53585676 153.47886142 197.14417042 162.13146618 194.5078125 169.90234375 C191.42675612 177.3895262 187.45701896 181.46250603 180.1953125 185.02734375 C173.91135034 187.06356325 165.40237861 187.23170631 159.1953125 184.90234375 C153.68272573 181.45697702 150.7046747 177.31635292 149.1953125 171.02734375 C147.9962348 163.69485424 148.08190997 156.44345018 148.1328125 149.02734375 C148.13732422 147.77566406 148.14183594 146.52398438 148.14648438 145.234375 C148.15819835 142.16531434 148.17460177 139.09635468 148.1953125 136.02734375 C146.96554687 136.65962891 146.96554687 136.65962891 145.7109375 137.3046875 C144.63328125 137.85253906 143.555625 138.40039062 142.4453125 138.96484375 C141.37796875 139.51011719 140.310625 140.05539062 139.2109375 140.6171875 C133.94661514 143.07887192 128.97134269 143.75937535 123.1953125 143.02734375 C119.18775439 140.94935066 116.62249774 138.79850759 114.1953125 135.02734375 C109.1740828 119.15535914 114.02118807 101.0768007 118.25 85.60449219 C119.95099595 79.16767457 121.32562496 73.28796867 118.1953125 67.02734375 C113.75129799 76.23857382 109.64394432 85.58069723 105.61172485 94.97738647 C91.80030485 127.12308275 91.80030485 127.12308275 83.1953125 137.02734375 C82.77765625 137.57519531 82.36 138.12304688 81.9296875 138.6875 C77.11325228 144.96492057 70.69084665 149.57425985 63.1953125 152.02734375 C59.01982134 152.54012337 56.82060968 152.32160125 53.0078125 150.52734375 C47.09908725 145.27514353 45.99714676 139.61698287 45.1953125 132.02734375 C44.85798096 132.61225586 44.52064941 133.19716797 44.1730957 133.79980469 C42.62822805 136.46506481 41.06822921 139.12115963 39.5078125 141.77734375 C38.97736328 142.69773437 38.44691406 143.618125 37.90039062 144.56640625 C34.17307494 150.87768925 30.61212724 156.04952648 23.1953125 158.02734375 C16.30905771 158.8136635 10.91941049 158.06475858 5.1953125 154.02734375 C-0.83709313 148.3210141 -2.08304323 139.96543072 -2.8046875 132.02734375 C-3.2790625 132.97609375 -3.7534375 133.92484375 -4.2421875 134.90234375 C-7.32223913 140.26551057 -11.56228018 144.56955268 -15.8046875 149.02734375 C-17.06152344 150.36345703 -17.06152344 150.36345703 -18.34375 151.7265625 C-35.1558806 169.10901612 -60.27840261 189.1093361 -85.4609375 190.36328125 C-87.07540159 190.38683097 -88.69005374 190.39975204 -90.3046875 190.40234375 C-91.10777344 190.42683594 -91.91085937 190.45132813 -92.73828125 190.4765625 C-99.13272752 190.50765381 -104.58871606 189.07281015 -109.33349609 184.57958984 C-114.59030816 178.51814423 -115.17158758 174.10641419 -115.07421875 166.24609375 C-114.73487613 162.19365436 -113.7719594 159.55203923 -111.8046875 156.02734375 C-109.16895771 157.0063291 -106.95490136 157.91689238 -104.6796875 159.58984375 C-98.1629088 162.8482331 -91.51412198 162.52612598 -84.6171875 160.58984375 C-67.47714182 154.66614625 -49.09494527 145.80088704 -40.8046875 129.02734375 C-41.59939453 128.93235596 -42.39410156 128.83736816 -43.21289062 128.73950195 C-91.89351706 122.8024105 -91.89351706 122.8024105 -106.8046875 106.02734375 C-113.48173778 96.38817067 -114.89164987 86.54288492 -113.8046875 75.02734375 C-109.49451465 52.79449011 -91.09589612 29.8324216 -73.8046875 16.02734375 C-73.05735352 15.42817139 -73.05735352 15.42817139 -72.29492188 14.81689453 C-52.11746132 -1.16977148 -24.12701203 -18.34739018 0 0 Z M212.1953125 16.02734375 C208.5446804 20.15167379 205.7431261 24.25119805 203.3203125 29.21484375 C202.97935547 29.91134033 202.63839844 30.60783691 202.28710938 31.32543945 C193.94763346 48.76832751 188.97838741 67.35232711 184.1953125 86.02734375 C183.88658203 87.22649414 183.57785156 88.42564453 183.25976562 89.66113281 C182.97552734 90.81581055 182.69128906 91.97048828 182.3984375 93.16015625 C182.14223633 94.19285645 181.88603516 95.22555664 181.62207031 96.28955078 C181.20554124 98.96172301 181.30725296 100.50564666 182.1953125 103.02734375 C184.47257869 98.76445036 186.74698552 94.50004685 189.01904297 90.234375 C189.78816443 88.79127453 190.55799205 87.34855014 191.32861328 85.90625 C195.4852721 78.12541938 199.59459928 70.32445106 203.5546875 62.44140625 C203.87421387 61.80799316 204.19374023 61.17458008 204.52294922 60.52197266 C211.15551744 47.22168747 218.237875 32.14450005 217.1953125 17.02734375 C215.5453125 16.69734375 213.8953125 16.36734375 212.1953125 16.02734375 Z M110.1953125 21.02734375 C106.32752934 25.3941957 104.35592946 28.73855213 103.9453125 34.58984375 C104.17417389 37.7366879 104.52314452 39.41458127 106.1953125 42.02734375 C106.8553125 42.02734375 107.5153125 42.02734375 108.1953125 42.02734375 C110.48144028 34.86958652 111.63563321 28.54541224 111.1953125 21.02734375 C110.8653125 21.02734375 110.5353125 21.02734375 110.1953125 21.02734375 Z M173.1953125 141.02734375 C170.72954687 143.49310938 171.96132429 149.96690561 171.9453125 153.27734375 C171.9246875 154.32792969 171.9040625 155.37851562 171.8828125 156.4609375 C171.87765625 157.47800781 171.8725 158.49507812 171.8671875 159.54296875 C171.8578418 160.47399414 171.84849609 161.40501953 171.83886719 162.36425781 C172.26097917 165.51795474 173.41056384 167.42502706 175.1953125 170.02734375 C177.61116824 169.99641202 177.61116824 169.99641202 180.1953125 169.02734375 C183.73713905 164.5084616 183.75776845 159.54351428 183.61328125 154.01171875 C182.98402116 149.51868411 181.34735114 146.28161067 178.1953125 143.02734375 C175.57071853 141.46972606 175.57071853 141.46972606 173.1953125 141.02734375 Z " fill="#ffffff" transform="translate(491.8046875,383.97265625)"/>
<path d="M0 0 C3.90494402 2.22424467 7.35525351 4.77267549 10.875 7.5625 C51.92164593 39.50138851 100.75376271 56.54809135 152 63 C151.67 63.66 151.34 64.32 151 65 C148.60333657 65.51474299 146.27993771 65.90124393 143.85546875 66.2265625 C142.31316197 66.45134007 140.77092895 66.67662415 139.22875977 66.90234375 C138.40803986 67.0194873 137.58731995 67.13663086 136.74172974 67.25732422 C122.39715759 69.32219399 108.19924231 71.80578435 94.0625 75 C93.31208435 75.16922974 92.5616687 75.33845947 91.78851318 75.51281738 C81.64932684 77.81429489 71.60403797 80.39519133 61.57006836 83.11962891 C53.43657943 85.26987032 45.38413528 86.42178377 37 87 C36.18144531 87.05929687 35.36289062 87.11859375 34.51953125 87.1796875 C14.15792557 87.86732146 -7.25237498 81.35288292 -22.4375 67.625 C-31.61894434 58.92779971 -37.63038899 49.16902297 -38.34765625 36.2890625 C-38.3922699 34.60970054 -38.42220761 32.92988485 -38.4375 31.25 C-38.45272705 30.06204834 -38.45272705 30.06204834 -38.46826172 28.85009766 C-38.38589307 23.30355526 -37.33502881 19.04703818 -35 14 C-32.625 12.6875 -32.625 12.6875 -30 13 C-26.38646649 15.75769662 -24.21366133 19.12299167 -21.6875 22.875 C-17.61522929 28.77581742 -13.60209344 34.26737083 -6.3125 35.75 C-2.07535611 34.79064667 -0.61622244 33.43846378 2 30 C5.17551491 23.80018518 5.11741533 15.64374563 3.1015625 9.0703125 C2.398715 7.35057925 1.65974789 5.64487568 0.875 3.9609375 C0 2 0 2 0 0 Z " fill="#ffffff" transform="translate(373,757)"/>
<path d="M0 0 C2.24155061 1.96135678 3.2211233 2.86815622 4 5.75 C3.89590795 12.20370713 2.61954454 15.02302419 -2 19.75 C-3.051875 20.7090625 -3.051875 20.7090625 -4.125 21.6875 C-8.44930888 26.44423976 -9.55121038 31.46598909 -9.2734375 37.7265625 C-9.0623204 39.88730172 -9.0623204 39.88730172 -8 42.3125 C-5.41296823 44.17192909 -3.15029408 44.43520075 0.00390625 44.25 C2.77869744 43.55494467 4.33419935 42.0442999 5.9765625 39.74609375 C7.60051468 36.57876717 8.48415217 33.27209939 9.32421875 29.82421875 C9.54722656 29.13972656 9.77023437 28.45523438 10 27.75 C10.66 27.42 11.32 27.09 12 26.75 C11.98952637 27.37640381 11.97905273 28.00280762 11.96826172 28.64819336 C11.15164195 85.63068064 23.72266148 140.39249219 54.44433594 188.8503418 C54.91387695 189.59324463 55.38341797 190.33614746 55.8671875 191.1015625 C56.28081543 191.73916504 56.69444336 192.37676758 57.12060547 193.03369141 C58 194.75 58 194.75 58 197.75 C47.54918033 186.56915984 47.54918033 186.56915984 43 180.75 C31.2746895 165.86333818 17.48952201 151.57145002 2.60546875 139.83984375 C-21.78885372 120.2731833 -42.17294318 93.69420896 -46 61.75 C-46.95298412 43.00354948 -46.32180887 25.19975479 -34.125 9.8125 C-25.97933323 1.13926414 -11.55225442 -4.81343934 0 0 Z " fill="#ffffff" transform="translate(265,505.25)"/>
<path d="M0 0 C0.33 0.99 0.66 1.98 1 3 C-0.1953125 4.7421875 -0.1953125 4.7421875 -2.125 6.875 C-17.22989918 25.04849515 -27.19786751 46.45519997 -34.12451172 68.85766602 C-40.07320487 88.07914018 -47.58055534 104.55534652 -62 119 C-62.69609375 119.70769531 -63.3921875 120.41539062 -64.109375 121.14453125 C-74.77974389 131.32811324 -87.07212133 136.40037637 -101.6875 136.375 C-102.55947021 136.37483887 -103.43144043 136.37467773 -104.32983398 136.37451172 C-112.83484099 136.22545247 -120.79737197 134.80175202 -128 130 C-127.86328125 127.75 -127.86328125 127.75 -127 125 C-124.41796875 122.9375 -124.41796875 122.9375 -121.1875 121 C-116.93270299 118.42950144 -113.70709892 116.23065942 -111 112 C-110.29058886 107.41672575 -111.59758617 103.69751731 -113.875 99.75 C-123.67014221 89.61806207 -142.04677106 87.98815115 -155.33984375 87.68359375 C-156.10680069 87.66281265 -156.87375763 87.64203156 -157.66395569 87.62062073 C-160.08838872 87.55579168 -162.51292013 87.49655379 -164.9375 87.4375 C-166.59180662 87.39425121 -168.24610367 87.35063501 -169.90039062 87.30664062 C-173.93349566 87.20017976 -177.96669859 87.09872938 -182 87 C-182 86.67 -182 86.34 -182 86 C-181.0706665 85.87995605 -180.14133301 85.75991211 -179.18383789 85.63623047 C-126.87795644 78.78246751 -78.68656835 64.02838357 -36 32 C-35.38044434 31.5373877 -34.76088867 31.07477539 -34.12255859 30.59814453 C-21.84292279 21.36629664 -10.73103258 10.98059147 0 0 Z " fill="#ffffff" transform="translate(749,735)"/>
<path d="M0 0 C4.61953011 1.47343503 9.17487796 3.03113178 13.6640625 4.8671875 C33.12414287 12.80583291 51.85695003 16.22970732 72.77490234 17.34008789 C97.49946372 18.66620949 123.16981646 22.833936 140.8515625 42.0078125 C145.17562952 47.4395223 148.46456967 53.13455941 147.9375 60.25 C146.89797103 64.40811586 146.28810123 65.39493429 143 68 C140.39468198 68.96994524 137.91835646 69.77506723 135.25 70.5 C122.93545093 74.0523414 122.93545093 74.0523414 114 83 C110.2033299 91.84830648 109.85800445 100.45554372 109.90234375 109.9609375 C109.9037587 111.10664215 109.90517365 112.2523468 109.90663147 113.43276978 C109.9122142 117.08020678 109.92476359 120.72758165 109.9375 124.375 C109.94251723 126.85286369 109.94707975 129.33072835 109.95117188 131.80859375 C109.96217799 137.87241691 109.97889897 143.93620402 110 150 C108.24480239 147.36720359 107.45691929 145.64393071 106.546875 142.6953125 C94.74296538 105.91472122 75.13211619 72.81085357 49.09765625 44.3203125 C47.28292559 42.3129568 45.54608313 40.26432391 43.8125 38.1875 C33.4794193 26.37826491 20.98392679 16.69081754 8.453125 7.3515625 C7.89254395 6.93358398 7.33196289 6.51560547 6.75439453 6.08496094 C5.21810618 4.94413908 3.67564898 3.81163803 2.1328125 2.6796875 C1.42898438 2.12539063 0.72515625 1.57109375 0 1 C0 0.67 0 0.34 0 0 Z " fill="#ffffff" transform="translate(703,320)"/>
<path d="M0 0 C6.31573155 6.65167472 11.46619002 14.21719127 16.2734375 21.99609375 C20.68661405 29.10391095 26.01397696 34.95913193 31.8359375 40.93359375 C32.39410156 41.56523437 32.95226562 42.196875 33.52734375 42.84765625 C41.49113012 51.62237648 52.82911837 57.75991776 62.8359375 63.93359375 C58.58803464 65.34956137 55.7995298 63.53965598 51.8359375 61.93359375 C-0.18479005 41.9482009 -62.88053489 39.32234681 -116.1796875 56.1796875 C-119.07046347 56.90994897 -120.43398316 57.02562549 -123.1640625 55.93359375 C-122.28105469 55.26714844 -121.39804687 54.60070312 -120.48828125 53.9140625 C-105.26035265 42.28460925 -94.21784032 29.37485642 -83.55249023 13.60791016 C-73.5176237 -1.150639 -60.55273324 -10.54979959 -43.02734375 -14.5546875 C-27.44840789 -17.17751037 -11.45500358 -10.35252671 0 0 Z " fill="#ffffff" transform="translate(591.1640625,229.06640625)"/>
<path d="M0 0 C1.12083984 -0.02900391 2.24167969 -0.05800781 3.39648438 -0.08789062 C14.620478 -0.17257543 23.95815784 2.62650521 32.3125 10.3125 C34.8125 13.1875 34.8125 13.1875 36.3125 15.3125 C36.6425 14.3225 36.9725 13.3325 37.3125 12.3125 C41.1875 14.0625 41.1875 14.0625 42.3125 16.3125 C42.640625 19.2265625 42.640625 19.2265625 42.3125 22.3125 C40.546875 24.1484375 40.546875 24.1484375 38.0625 25.6875 C37.14597656 26.27660156 36.22945313 26.86570312 35.28515625 27.47265625 C34.30417969 28.07980469 33.32320313 28.68695313 32.3125 29.3125 C20.04102294 37.28812756 8.68441229 45.78072787 -1.9765625 55.7890625 C-4.23005176 57.88669083 -6.52090164 59.8930911 -8.875 61.875 C-29.85491278 80.18395879 -45.08741538 105.97645931 -59.6875 129.3125 C-64.4375 128.5625 -64.4375 128.5625 -66.6875 126.3125 C-66.66948717 123.54152626 -66.53867255 120.88016709 -66.3125 118.125 C-66.19997897 116.48458777 -66.09065172 114.84395361 -65.984375 113.203125 C-65.93087891 112.38005859 -65.87738281 111.55699219 -65.82226562 110.70898438 C-65.39849467 103.17323127 -65.43464581 95.65245382 -66.1796875 88.140625 C-67.58719581 73.34409917 -68.21614589 57.61060376 -63.6875 43.3125 C-63.17703125 41.65927734 -63.17703125 41.65927734 -62.65625 39.97265625 C-58.54450367 28.06803934 -51.59004952 19.01252516 -41.6875 11.3125 C-41.08679688 10.84199219 -40.48609375 10.37148438 -39.8671875 9.88671875 C-28.23404362 1.75359002 -13.76895408 0.11675201 0 0 Z M-8.6875 22.3125 C-10.36094323 27.33282969 -10.55941216 31.53076645 -8.25 36.25 C-4.50562894 39.26376208 -1.33908732 39.75581426 3.3125 39.3125 C11.3692244 37.26374068 19.02319885 34.32905369 26.3125 30.3125 C25.56295973 26.07119896 23.80500883 24.42113885 20.5390625 21.7734375 C11.57967587 15.89482241 -1.055247 12.67175937 -8.6875 22.3125 Z " fill="#ffffff" transform="translate(364.6875,290.6875)"/>
<path d="M0 0 C0.98871094 -0.01417969 1.97742188 -0.02835938 2.99609375 -0.04296875 C5.5625 0.1875 5.5625 0.1875 7.5625 2.1875 C7.05517578 5.10498047 7.05517578 5.10498047 6.0078125 8.8046875 C5.73721512 9.78503464 5.73721512 9.78503464 5.46115112 10.78518677 C4.88100315 12.88089985 4.28520498 14.97173278 3.6875 17.0625 C3.09923922 19.14666513 2.51441361 21.23167194 1.93527222 23.31838989 C1.40691772 25.21802028 0.86801438 27.11470719 0.32861328 29.01123047 C-0.59381665 32.29102204 -0.59381665 32.29102204 -0.4375 36.1875 C0.02140625 35.34445312 0.4803125 34.50140625 0.953125 33.6328125 C1.87351562 31.98925781 1.87351562 31.98925781 2.8125 30.3125 C3.41578125 29.22195313 4.0190625 28.13140625 4.640625 27.0078125 C6.55111533 24.20420677 7.38911221 23.18186909 10.5625 22.1875 C14.81281548 21.63275633 17.90966253 21.75227502 21.5625 24.1875 C22.88014885 28.09927003 22.38672639 30.89793809 21.3125 34.8203125 C21.0340625 35.87347656 20.755625 36.92664063 20.46875 38.01171875 C20.1696875 39.10097656 19.870625 40.19023438 19.5625 41.3125 C18.97166608 43.47973995 18.38797904 45.64894482 17.8125 47.8203125 C17.54953125 48.77824707 17.2865625 49.73618164 17.015625 50.72314453 C16.33512866 53.30967578 16.33512866 53.30967578 17.5625 56.1875 C21.0275 51.2375 21.0275 51.2375 24.5625 46.1875 C26.2125 46.5175 27.8625 46.8475 29.5625 47.1875 C28.50313123 54.16687075 24.72514388 60.6884844 19.3125 65.25 C15.43768494 67.97998334 13.34560371 68.76147245 8.5625 68.1875 C4.93008727 64.55508727 3.60561637 61.76555897 3.46484375 56.61328125 C3.47146756 55.24215342 3.48335802 53.87104283 3.5 52.5 C3.50451172 51.79810547 3.50902344 51.09621094 3.51367188 50.37304688 C3.52543073 48.64449462 3.54336546 46.91598635 3.5625 45.1875 C3.30033691 45.92911377 3.03817383 46.67072754 2.76806641 47.43481445 C1.57880825 50.79140487 0.38323338 54.14571112 -0.8125 57.5 C-1.225 58.66724609 -1.6375 59.83449219 -2.0625 61.03710938 C-2.46210937 62.15537109 -2.86171875 63.27363281 -3.2734375 64.42578125 C-3.64001465 65.45743408 -4.0065918 66.48908691 -4.38427734 67.55200195 C-5.4375 70.1875 -5.4375 70.1875 -7.4375 73.1875 C-10.75 73.6875 -10.75 73.6875 -14.4375 73.1875 C-17.375 70.6875 -17.375 70.6875 -19.4375 68.1875 C-20.13617187 68.75339844 -20.83484375 69.31929687 -21.5546875 69.90234375 C-22.46476563 70.63582031 -23.37484375 71.36929688 -24.3125 72.125 C-25.21742188 72.85589844 -26.12234375 73.58679688 -27.0546875 74.33984375 C-31.82262881 78.03695234 -36.55865748 77.84164866 -42.4375 77.1875 C-45.5 75.1875 -45.5 75.1875 -47.4375 73.1875 C-48.0975 73.1875 -48.7575 73.1875 -49.4375 73.1875 C-50.68140935 74.69328501 -51.92395588 76.20027636 -53.15234375 77.71875 C-55.65215971 80.57568253 -57.73299814 81.09943727 -61.4375 81.5625 C-64.4375 81.1875 -64.4375 81.1875 -66.75 79.4375 C-69.97982863 75.13106183 -69.56401596 70.64741426 -69.5 65.4375 C-69.49548828 64.74011719 -69.49097656 64.04273438 -69.48632812 63.32421875 C-69.4746002 61.61194197 -69.45666653 59.89970967 -69.4375 58.1875 C-73.26459594 67.41080122 -76.68270274 76.57811898 -79.4375 86.1875 C-82.625 87 -82.625 87 -86.4375 87.1875 C-89.375 84.75 -89.375 84.75 -91.4375 82.1875 C-91.87320313 82.60902344 -92.30890625 83.03054688 -92.7578125 83.46484375 C-96.48820105 86.89647824 -99.12776467 89.1875 -104.4375 89.1875 C-107.79806696 88.06731101 -108.40106066 87.24215901 -110.4375 84.1875 C-110.83839844 84.75339844 -111.23929687 85.31929687 -111.65234375 85.90234375 C-114.71088306 89.84862236 -116.9476926 92.65532861 -122.0625 93.375 C-125.9946393 93.46193505 -128.41871529 92.85113357 -131.4375 90.1875 C-136.21222819 83.70751174 -136.10146429 75.94639698 -135.4375 68.1875 C-133.70063221 60.29835353 -130.20708915 54.74728591 -124.4375 49.1875 C-123.633125 48.383125 -122.82875 47.57875 -122 46.75 C-117.57737426 44.05327699 -113.27483571 43.8272381 -108.25 44.8125 C-104.61641272 45.2969783 -103.47929441 44.0886215 -100.4375 42.1875 C-96.30839433 41.77458943 -94.9461396 41.84840693 -91.4375 44.1875 C-92.20113446 50.71789122 -93.89977888 56.85036519 -95.70898438 63.16015625 C-97.04355953 68.00820477 -97.7011128 72.15857896 -97.4375 77.1875 C-93.98050672 73.40004251 -92.75220547 70.51843111 -91.83984375 65.49609375 C-91.59556641 64.22185547 -91.35128906 62.94761719 -91.09960938 61.63476562 C-90.85674123 60.29841842 -90.6152173 58.96182626 -90.375 57.625 C-89.89683871 54.99590721 -89.40341446 52.37106629 -88.90234375 49.74609375 C-88.58704712 48.00283813 -88.58704712 48.00283813 -88.26538086 46.22436523 C-87.43318768 43.17168136 -86.62187148 41.45259677 -84.4375 39.1875 C-82.02734375 38.76171875 -82.02734375 38.76171875 -79.375 38.875 C-78.05822266 38.91173828 -78.05822266 38.91173828 -76.71484375 38.94921875 C-74.4375 39.1875 -74.4375 39.1875 -72.4375 40.1875 C-73.0975 43.8175 -73.7575 47.4475 -74.4375 51.1875 C-73.99019531 50.36765625 -73.54289063 49.5478125 -73.08203125 48.703125 C-72.47746094 47.62546875 -71.87289062 46.5478125 -71.25 45.4375 C-70.65832031 44.37015625 -70.06664062 43.3028125 -69.45703125 42.203125 C-67.03300773 38.58349993 -64.68102621 35.70934584 -60.3046875 34.69140625 C-54.96642652 34.84841393 -54.96642652 34.84841393 -52.70703125 36.296875 C-50.8020206 39.13387548 -51.14992751 41.5058928 -51.25 44.875 C-51.29060547 46.64423828 -51.29060547 46.64423828 -51.33203125 48.44921875 C-51.36683594 49.35285156 -51.40164063 50.25648438 -51.4375 51.1875 C-51.29054688 50.630625 -51.14359375 50.07375 -50.9921875 49.5 C-48.47556717 40.93770554 -44.31858267 34.56587926 -36.4375 30.1875 C-32.71367317 28.94622439 -29.30574568 28.66069611 -25.4375 29.1875 C-22.4375 30.75 -22.4375 30.75 -20.4375 33.1875 C-20.08122716 36.63147075 -19.87319752 39.05889505 -21.4375 42.1875 C-24.30840587 41.79151298 -25.22665127 41.4551157 -27.0625 39.125 C-27.743125 38.1659375 -27.743125 38.1659375 -28.4375 37.1875 C-29.0975 37.1875 -29.7575 37.1875 -30.4375 37.1875 C-30.9178318 38.77048026 -31.39671612 40.35389978 -31.875 41.9375 C-32.14183594 42.81921875 -32.40867187 43.7009375 -32.68359375 44.609375 C-32.93238281 45.46015625 -33.18117188 46.3109375 -33.4375 47.1875 C-33.63214844 47.82945312 -33.82679688 48.47140625 -34.02734375 49.1328125 C-34.57614426 51.88204172 -34.56938273 54.51122752 -34.5625 57.3125 C-34.56507813 58.36695313 -34.56765625 59.42140625 -34.5703125 60.5078125 C-34.619029 63.15976654 -34.619029 63.15976654 -33.4375 65.1875 C-28.2787286 64.39384286 -24.51342703 61.57605489 -21.3671875 57.515625 C-19.28645117 53.92698663 -18.33695204 50.64302297 -17.5625 46.625 C-17.32768921 45.50303223 -17.32768921 45.50303223 -17.08813477 44.35839844 C-16.5224426 41.63770128 -15.97875134 38.91316588 -15.4375 36.1875 C-14.68474695 32.4092885 -13.92916553 28.6317412 -13.16552734 24.85571289 C-12.64530173 22.27723827 -12.13366868 19.69701263 -11.63134766 17.11499023 C-11.27049072 15.31783569 -11.27049072 15.31783569 -10.90234375 13.484375 C-10.692146 12.41541992 -10.48194824 11.34646484 -10.26538086 10.24511719 C-8.37289639 3.25559331 -7.23763712 0.04705876 0 0 Z M-114.03515625 53.62109375 C-119.11592624 60.5715871 -122.31824807 67.38001935 -121.4375 76.1875 C-120.7775 77.1775 -120.1175 78.1675 -119.4375 79.1875 C-117.52283633 79.06572312 -117.52283633 79.06572312 -115.4375 78.1875 C-112.52108114 74.20020859 -111.3729494 69.92398695 -110.25 65.1875 C-110.07275391 64.48882813 -109.89550781 63.79015625 -109.71289062 63.0703125 C-108.81048126 59.37705411 -108.22205115 55.99128654 -108.4375 52.1875 C-112.29906665 51.7422613 -112.29906665 51.7422613 -114.03515625 53.62109375 Z " fill="#ffffff" transform="translate(614.4375,547.8125)"/>
<path d="M0 0 C2.41034989 3.61552483 3.2402674 7.22801304 4.28515625 11.3828125 C4.73246241 13.11286955 5.1804045 14.84276228 5.62890625 16.57250977 C5.97912842 17.93244553 5.97912842 17.93244553 6.33642578 19.31985474 C13.81324806 48.20612016 23.83883574 74.96015201 37.3125 101.625 C47.53687807 121.93538109 57.12991142 145.71510083 50.375 168.6875 C47.88322672 175.02221939 44.6871114 179.29999075 38.9375 182.9375 C35.99297598 184.0025406 34.08806916 184.51467819 31 184 C28.82749507 180.7412426 28.59616298 179.00968944 28.125 175.1875 C27.34982022 170.21192743 26.44591516 166.83973404 23 163 C17.18324333 158.78285141 11.01727256 158.16139737 4 159 C-13.50192285 164.13543263 -26.04694074 177.6473116 -37.9987793 190.67944336 C-38.92750854 191.68890015 -38.92750854 191.68890015 -39.875 192.71875 C-40.42929687 193.32654297 -40.98359375 193.93433594 -41.5546875 194.56054688 C-43 196 -43 196 -45 197 C-43.54151361 192.88903317 -41.5051584 189.6043567 -39.0625 186 C-11.5533555 144.02780847 2.21576088 92.53480104 2.1875 42.5625 C2.18814453 41.35835449 2.18878906 40.15420898 2.18945312 38.91357422 C2.13386876 29.34422102 1.47447231 19.92225829 0.4375 10.4140625 C0.05958192 6.9257015 -0.09154359 3.51298522 0 0 Z " fill="#ffffff" transform="translate(821,506)"/>
<path d="M0 0 C5.11654077 4.86071373 6.74100332 8.4704892 7 15.4375 C6.69079398 22.9802529 3.71200226 26.34971645 -1.625 31.375 C-6.22623727 35.35610379 -11.18229296 38.4441552 -16.5 41.375 C-14.37966595 43.73604831 -12.25592216 46.09342804 -10.12109375 48.44140625 C-8.4109504 50.3554415 -6.73428609 52.30008201 -5.09765625 54.27734375 C0.66997773 61.09193884 6.23066657 65.00759102 14.5 68.375 C12.69587357 71.63960973 11.66605307 73.26429795 8.5 75.375 C2.77397011 76.05435948 -0.62743778 75.40548028 -5.36328125 72.12109375 C-12.48114875 66.30448174 -18.54733535 59.34708123 -24.5 52.375 C-24.83 52.045 -25.16 51.715 -25.5 51.375 C-27.45403042 59.10388819 -27.72428282 66.42542008 -27.5 74.375 C-33.15625 75.53125 -33.15625 75.53125 -36.25 74.125 C-39.29719683 71.75495802 -40.40194685 70.12265525 -40.90625 66.27734375 C-41.28835998 50.11727576 -37.89611871 32.29153435 -31.5 17.375 C-29.5 15.375 -29.5 15.375 -27.44140625 15.109375 C-26.65636719 15.11453125 -25.87132812 15.1196875 -25.0625 15.125 C-23.88880859 15.11726562 -23.88880859 15.11726562 -22.69140625 15.109375 C-20.5 15.375 -20.5 15.375 -17.5 17.375 C-18.82 21.995 -20.14 26.615 -21.5 31.375 C-19.7675 30.158125 -18.035 28.94125 -16.25 27.6875 C-15.27546875 27.00300781 -14.3009375 26.31851563 -13.296875 25.61328125 C-9.54634556 22.61181006 -6.78903093 20.14531446 -6 15.3125 C-6.32792188 12.35389204 -6.32792188 12.35389204 -7.875 10 C-12.01995982 7.43407249 -15.75910397 7.72415445 -20.5 8.375 C-31.91481357 11.11964466 -42.90077404 19.78681165 -49.5 29.375 C-53.54710755 36.03605229 -56.40875631 41.49911202 -55.5 49.375 C-66.33288923 46.04724971 -66.33288923 46.04724971 -69.5 43.375 C-71.05679491 39.43722464 -70.58434881 37.6050422 -69.125 33.625 C-59.96671025 17.23976051 -41.28143943 3.98529743 -23.328125 -1.16796875 C-22.72484375 -1.31878906 -22.1215625 -1.46960938 -21.5 -1.625 C-20.571875 -1.8725 -19.64375 -2.12 -18.6875 -2.375 C-12.22098346 -2.88217777 -5.93543055 -2.75573561 0 0 Z " fill="#ffffff" transform="translate(474.5,575.625)"/>
<path d="M0 0 C1.65 0 3.3 0 5 0 C6.87014121 2.16448775 8.31512026 4.10319582 9.8125 6.5 C10.21919922 7.12003906 10.62589844 7.74007812 11.04492188 8.37890625 C12.04550555 9.90921069 13.02485338 11.45336222 14 13 C14.33 8.71 14.66 4.42 15 0 C16.98 0 18.96 0 21 0 C21 9.24 21 18.48 21 28 C19.35 28 17.7 28 16 28 C14.12985879 25.83551225 12.68487974 23.89680418 11.1875 21.5 C10.78080078 20.87996094 10.37410156 20.25992188 9.95507812 19.62109375 C8.95449445 18.09078931 7.97514662 16.54663778 7 15 C6.67 19.29 6.34 23.58 6 28 C4.02 28 2.04 28 0 28 C0 18.76 0 9.52 0 0 Z " fill="#ffffff" transform="translate(506,698)"/>
<path d="M0 0 C14 0 14 0 17.75 1.75 C21.56053566 5.56053566 22.30684778 8.5182359 22.375 13.875 C22.28907056 19.29516473 21.66370873 22.02225909 18 26 C14.31602884 28.45598077 11.55276192 28.2271532 7.3125 28.125 C4.899375 28.08375 2.48625 28.0425 0 28 C0 18.76 0 9.52 0 0 Z M6 6 C6 11.28 6 16.56 6 22 C11.62268204 22.53399299 11.62268204 22.53399299 14.375 20.5 C16.34789171 17.46478198 16.63971021 15.47802406 16.453125 11.90625 C16.08700329 9.70711725 16.08700329 9.70711725 13.8125 7.5 C10.79595588 5.60784314 10.79595588 5.60784314 6 6 Z " fill="#ffffff" transform="translate(627,698)"/>
<path d="M0 0 C4.86987836 2.43493918 7.21711438 4.84944153 9 10 C9.78174704 15.42879887 8.95729379 19.29023582 6 24 C3.95943261 26.4656856 3.13026076 26.95657975 0 28 C-5.00020732 28.37038573 -8.05280378 28.20042937 -12 25 C-15.92733098 20.6480927 -16.63411612 17.07542133 -16.38671875 11.40234375 C-15.63049376 6.70458245 -13.28482664 4.04175133 -9.6875 1.125 C-6.16108808 -0.35117243 -3.79611 -0.46618895 0 0 Z M-7.25 7.5 C-9.5699404 10.81420058 -10.07095775 12.95540843 -10 17 C-8.0405988 20.1264113 -8.0405988 20.1264113 -5 22 C-2.33333333 22.33333333 -2.33333333 22.33333333 0 21 C2.46824012 18.12038653 3.04085813 16.68096884 2.8125 12.875 C2.11277832 9.83603023 2.11277832 9.83603023 0 7 C-3.20594457 5.73449556 -4.34202359 5.56134906 -7.25 7.5 Z " fill="#ffffff" transform="translate(671,698)"/>
<path d="M0 0 C2.5625 2.3125 2.5625 2.3125 4 5 C4 6.32 4 7.64 4 9 C2.02 9 0.04 9 -2 9 C-2.33 8.01 -2.66 7.02 -3 6 C-4.98 6 -6.96 6 -9 6 C-6.84164588 8.37486613 -4.84310913 9.72103186 -1.9375 11.0625 C0.57818969 12.22899298 2.01051026 13.01051026 4 15 C4.44678306 19.02104757 4.6808704 21.13756416 2.125 24.375 C-1.77057635 27.35397015 -5.21414929 27.48591971 -10 27 C-12.9375 25.9375 -12.9375 25.9375 -15 24 C-15.8125 20.3125 -15.8125 20.3125 -16 17 C-13.125 16.8125 -13.125 16.8125 -10 17 C-9.34 17.99 -8.68 18.98 -8 20 C-4.91634129 20.2502157 -4.91634129 20.2502157 -2 20 C-3.57961301 16.84077398 -6.60093914 16.3738893 -9.7734375 15.09765625 C-13.00574893 13.50418342 -14.62696422 12.01252569 -15.875 8.625 C-16.04025496 5.15464588 -15.12346347 3.7092465 -13 1 C-8.7038662 -1.6930988 -4.76573143 -1.36413597 0 0 Z " fill="#ffffff" transform="translate(701,699)"/>
<path d="M0 0 C3.90612165 2.06361144 6.48603365 3.76089421 8 8 C5 10 5 10 1 10 C0.67 9.34 0.34 8.68 0 8 C-2.32024404 6.98546047 -2.32024404 6.98546047 -5 7 C-7.45714369 8.45668762 -7.45714369 8.45668762 -9 11 C-9.62161854 14.72971123 -9.47532132 16.31342475 -7.3125 19.4375 C-5.11889116 21.25679372 -5.11889116 21.25679372 -2.5 20.875 C-0.20730471 20.07255665 1.878206 19.17877445 4 18 C5.32 18.99 6.64 19.98 8 21 C3.375 26.875 3.375 26.875 0 28 C-6.70527386 28.78228195 -6.70527386 28.78228195 -10.04296875 26.765625 C-13.69928524 23.71995106 -15.71954288 21.67123911 -16.23828125 16.73046875 C-16.40699943 10.94965106 -16.04422113 7.48143423 -12 3 C-8.07324125 -0.18385844 -4.98824428 -0.6125914 0 0 Z " fill="#ffffff" transform="translate(460,698)"/>
<path d="M0 0 C2.3815918 0.09399414 2.3815918 0.09399414 5 1 C6.57739258 3.37670898 6.57739258 3.37670898 7.89453125 6.49609375 C8.37470703 7.61177734 8.85488281 8.72746094 9.34960938 9.87695312 C9.83236328 11.05193359 10.31511719 12.22691406 10.8125 13.4375 C11.31458984 14.60861328 11.81667969 15.77972656 12.33398438 16.98632812 C16 25.63014456 16 25.63014456 16 28 C13.69 28 11.38 28 9 28 C6.69 23.05 4.38 18.1 2 13 C-1.465 20.425 -1.465 20.425 -5 28 C-7.31 28 -9.62 28 -12 28 C-10.01062264 21.63855262 -7.61912841 15.57125847 -4.875 9.5 C-4.51535156 8.69046875 -4.15570312 7.8809375 -3.78515625 7.046875 C-1.1381079 1.1381079 -1.1381079 1.1381079 0 0 Z " fill="#ffffff" transform="translate(607,698)"/>
<path d="M0 0 C1.65 0 3.3 0 5 0 C6.842305 4.10019767 8.67229455 8.20577608 10.5 12.3125 C11.02464844 13.47974609 11.54929687 14.64699219 12.08984375 15.84960938 C12.58613281 16.96787109 13.08242188 18.08613281 13.59375 19.23828125 C14.05458984 20.26993408 14.51542969 21.30158691 14.99023438 22.36450195 C16 25 16 25 16 28 C14.02 28 12.04 28 10 28 C7.69 23.38 5.38 18.76 3 14 C0.52456753 17.30057663 -0.76116089 19.51200786 -2.1875 23.25 C-2.53167969 24.14203125 -2.87585938 25.0340625 -3.23046875 25.953125 C-3.48441406 26.62859375 -3.73835938 27.3040625 -4 28 C-6.31 28 -8.62 28 -11 28 C-10.37165495 24.20888468 -9.26471197 20.99219548 -7.71484375 17.48046875 C-7.26689453 16.45888672 -6.81894531 15.43730469 -6.35742188 14.38476562 C-5.88884766 13.32966797 -5.42027344 12.27457031 -4.9375 11.1875 C-4.46505859 10.11306641 -3.99261719 9.03863281 -3.50585938 7.93164062 C-2.34167464 5.28576624 -1.17292168 2.64201005 0 0 Z " fill="#ffffff" transform="translate(483,698)"/>
<path d="M0 0 C2.3815918 0.078125 2.3815918 0.078125 5 1 C6.57739258 3.484375 6.57739258 3.484375 7.89453125 6.75 C8.37470703 7.9153125 8.85488281 9.080625 9.34960938 10.28125 C9.83236328 11.5084375 10.31511719 12.735625 10.8125 14 C11.31790887 15.24029894 11.82505119 16.47989303 12.33398438 17.71875 C16 26.73664966 16 26.73664966 16 28 C13.69 28 11.38 28 9 28 C6.69 23.05 4.38 18.1 2 13 C-1.465 20.425 -1.465 20.425 -5 28 C-7.31 28 -9.62 28 -12 28 C-10.01062264 21.63855262 -7.61912841 15.57125847 -4.875 9.5 C-4.51535156 8.69046875 -4.15570313 7.8809375 -3.78515625 7.046875 C-1.1381079 1.1381079 -1.1381079 1.1381079 0 0 Z " fill="#ffffff" transform="translate(426,698)"/>
<path d="M0 0 C7.26 0 14.52 0 22 0 C22 1.98 22 3.96 22 6 C19.36 6 16.72 6 14 6 C14 13.26 14 20.52 14 28 C12.02 28 10.04 28 8 28 C8 20.74 8 13.48 8 6 C5.36 6 2.72 6 0 6 C0 4.02 0 2.04 0 0 Z " fill="#ffffff" transform="translate(533,698)"/>
<path d="M0 0 C1.98 0 3.96 0 6 0 C6 7.26 6 14.52 6 22 C9.96 22 13.92 22 18 22 C18 23.98 18 25.96 18 28 C12.06 28 6.12 28 0 28 C0 18.76 0 9.52 0 0 Z " fill="#ffffff" transform="translate(574,698)"/>
<path d="M0 0 C1.98 0 3.96 0 6 0 C6 9.24 6 18.48 6 28 C4.02 28 2.04 28 0 28 C0 18.76 0 9.52 0 0 Z " fill="#ffffff" transform="translate(560,698)"/>
</svg>
