<svg width="1440" height="1440" viewBox="0 0 1440 1440" fill="none" xmlns="http://www.w3.org/2000/svg">
<mask id="mask0_1_32" style="mask-type:luminance" maskUnits="userSpaceOnUse" x="0" y="0" width="1440" height="1440">
<path d="M-2.14577e-05 -4.29153e-05H1440V1440H-2.14577e-05V-4.29153e-05Z" fill="white"/>
</mask>
<g mask="url(#mask0_1_32)">
<path d="M1131.36 776.041C1120.06 755.101 1114.05 739.758 1104.95 713.963C1096.07 687.283 1093.16 670.037 1087.1 648.917C1089.82 666.863 1091.3 685.225 1091.3 703.922C1091.3 780.289 1067.86 851.126 1027.8 909.783C1030.78 906.766 1033.45 903.541 1037.02 900.069C1060.46 871.523 1086.48 853.883 1106.6 858.898C1138.42 866.817 1116.72 897.679 1134.52 892.234C1152.37 886.787 1172.53 852.254 1131.36 776.041Z" fill="white"/>
<path d="M1073.54 559.116C1073.34 543.189 1074 530.263 1076.77 518.855C1084.77 485.944 1121.66 500.545 1125.41 481.617C1129.11 462.689 1097.59 425.761 1026.13 424.796C995.044 424.381 968.976 418.035 943.247 406.553C937.583 404.271 934.832 402.516 930.633 401.073C999.509 447.793 1051.55 517.432 1075.93 598.993C1074.47 585.823 1073.51 572.52 1073.54 559.116Z" fill="white"/>
<path d="M796.45 302.847C816.163 336.305 845.199 355.535 863.817 365.27C821.171 347.81 774.471 338.191 725.567 338.191C687.751 338.191 651.247 343.947 616.945 354.608C633.362 343.483 651.866 326.563 666.466 302.847C693.194 259.435 731.478 260.24 731.478 260.24C731.478 260.24 769.102 256.435 796.45 302.847Z" fill="white"/>
<path d="M748.449 1068.89C748.794 1068.94 749.136 1069.01 749.478 1069.06C786.002 1066.45 832.882 1070.05 842.842 1090.43C855.126 1115.66 808.309 1118.63 824.224 1127.9C876.488 1151.62 926.665 1112.92 945.632 1039.29C950.805 1019.21 960.165 1002.53 970.246 985.823C978.845 971.05 983.274 966.252 990.766 956.37C991.205 955.683 991.664 955.003 992.109 954.318C930.304 1020.11 844.388 1063 748.449 1068.89Z" fill="white"/>
<path d="M691.722 1068.03C615.26 1060.99 545.617 1030.52 490.13 983.744C497.005 996.297 500.018 1009.74 493.876 1022.1C480.241 1049.53 458.029 1012.87 458.029 1012.87C458.029 1012.87 441.226 979.842 439.064 1024.34C436.938 1068.84 494.109 1114.31 574.686 1091.63C619.242 1079.07 651.89 1073.26 680.201 1069.92C684.745 1069.04 687.82 1068.44 691.722 1068.03Z" fill="white"/>
<path d="M352.189 834.562C374.319 853.267 393.597 873.279 410.714 895.392C415.811 901.079 419.193 905.352 423.606 910.144C383.415 851.422 359.877 780.432 359.877 703.923C359.877 697.046 360.069 690.208 360.455 683.45C358.022 696.003 353.771 705.738 346.55 707.438C323.526 712.846 329.746 679.084 342.222 671.783C354.661 664.483 355.086 634.662 315.685 650.924C276.323 667.187 260.525 763.526 352.189 834.562Z" fill="white"/>
<path d="M572.901 940.969L571.966 938.916L562.577 917.21L552.251 940.969H544.763L546.847 936.138L560.342 905.104H564.81L565.715 907.126L580.358 940.969H572.901Z" fill="white"/>
<path d="M614.11 933.24C613.356 934.539 612.3 935.776 611.001 936.924C607.801 939.611 604.268 940.969 600.434 940.969C596.146 940.909 592.434 939.217 589.324 935.897C586.125 932.395 584.493 928.048 584.493 923.037C584.493 917.935 586.125 913.617 589.385 910.115C592.434 906.795 596.146 905.103 600.434 905.103C602.818 905.103 605.204 905.677 607.529 906.855C610.609 908.395 612.812 910.477 614.11 913.013L614.805 914.372L608.617 917.451L607.921 916.123C607.62 915.519 607.137 914.884 606.472 914.281C604.721 912.741 602.729 911.988 600.434 911.988C598.17 911.988 596.178 912.892 594.426 914.735C592.373 916.968 591.377 919.685 591.377 923.037C591.377 925.904 592.162 928.38 593.822 930.584C595.634 932.908 597.778 934.087 600.434 934.087C601.552 934.087 602.698 933.844 603.816 933.361C605.838 932.516 607.257 931.369 608.102 929.828L608.858 928.5L614.865 931.943L614.11 933.24Z" fill="white"/>
<path d="M649.825 940.969L648.889 938.916L639.501 917.21L629.176 940.969H621.719L623.772 936.138L637.265 905.104H641.735L642.64 907.126L657.283 940.969H649.825Z" fill="white"/>
<path d="M694.446 940.969H689.224L674.218 919.474V940.969H667.336V905.104H672.558L687.592 926.6L687.624 905.104H694.506L694.446 940.969Z" fill="white"/>
<path d="M731.459 911.987H720.862V940.969H714.009V911.987H703.321V905.103H731.459V911.987Z" fill="white"/>
<path d="M746.493 940.969H739.611V905.104H746.493V940.969Z" fill="white"/>
<path d="M780.246 940.969H757.904V905.104H764.788V934.086H780.246V940.969Z" fill="white"/>
<path d="M814.541 940.969L813.605 938.916L804.216 917.21L793.892 940.969H786.435L788.487 936.138L801.981 905.104H806.451L807.387 907.126L821.999 940.969H814.541Z" fill="white"/>
<path d="M928.99 937.015C926.365 939.641 922.984 940.969 918.937 940.969C915.436 940.969 912.386 939.943 909.85 937.981C907.164 935.836 905.836 933.24 905.836 930.281V928.772H912.688L912.72 930.221C912.748 930.945 913.08 931.641 913.714 932.305C914.982 933.483 916.704 934.087 918.937 934.087C920.356 934.087 921.625 933.784 922.862 933.18C924.916 932.124 925.157 931.007 925.157 930.281C925.157 930.16 925.128 930.071 925.036 929.92C924.885 929.617 924.161 928.652 920.326 927.143C916.521 925.663 914.198 924.727 913.413 924.335C908.945 922.131 906.71 919.263 906.71 915.791C906.71 913.316 907.617 911.051 909.428 909.059C911.844 906.432 915.044 905.103 918.937 905.103C922.048 905.103 924.796 906.009 927.12 907.82C929.806 909.964 931.165 912.62 931.165 915.791V917.3H924.281V915.791C924.281 915.036 924.01 914.372 923.465 913.739C922.38 912.56 920.901 911.987 918.937 911.987C917.792 911.987 916.734 912.228 915.708 912.771C913.805 913.768 913.594 914.976 913.594 915.791C913.594 915.881 913.625 916.001 913.685 916.153C913.745 916.273 914.409 917.269 918.304 918.749C922.137 920.289 924.493 921.225 925.308 921.617C929.806 923.852 932.04 926.78 932.04 930.281C932.01 932.757 930.984 935.021 928.99 937.015Z" fill="white"/>
<path d="M887.993 931.309C886.242 933.15 884.281 934.055 881.985 934.085C879.329 934.085 877.154 932.939 875.345 930.613C873.685 928.409 872.866 925.934 872.866 923.037C872.866 919.683 873.894 916.967 875.977 914.733C877.728 912.891 879.69 911.987 881.985 911.987C884.642 911.987 886.814 913.103 888.597 915.427C890.289 917.633 891.102 920.109 891.102 923.037C891.102 926.358 890.077 929.074 887.993 931.309ZM893.126 910.145C890.016 906.823 886.273 905.134 881.985 905.103C877.698 905.103 873.957 906.794 870.877 910.115C867.614 913.646 865.985 917.995 865.985 923.037C865.985 928.047 867.614 932.393 870.846 935.897C873.957 939.217 877.698 940.907 881.985 940.97C886.273 940.97 890.016 939.279 893.096 935.929C896.324 932.393 897.988 928.078 897.988 923.037C897.988 917.995 896.354 913.646 893.126 910.145Z" fill="white"/>
<path d="M890.468 708.718C890.227 709.262 889.866 709.775 889.472 710.258C886.06 714.635 882.771 714.606 879.48 710.167C877.396 707.33 876.219 704.159 876.279 700.567C876.339 697.638 876.279 694.74 876.279 691.843H876.582C876.852 686.195 877.124 680.551 877.367 674.906C877.396 673.486 877.518 672.036 879.148 671.886C880.052 671.826 881.17 672.43 881.926 673.064C886.756 677.019 891.011 681.366 892.551 687.766C894.274 695.042 893.246 701.956 890.468 708.718ZM894.907 593.967C900.824 570.57 907.858 547.564 917.73 525.495C919.752 521.027 922.531 516.891 924.916 512.574C927.271 508.287 930.984 506.083 935.875 505.238C937.927 508.468 939.135 511.668 938.382 515.926C934.758 536.635 926.576 555.686 917.187 574.191C907.858 592.607 897.563 610.54 887.691 628.684C887.42 629.198 887.027 629.62 886.695 630.104C886.544 630.043 886.424 629.983 886.274 629.922C889.14 617.938 891.887 605.922 894.907 593.967ZM792.2 543.639C789.484 542.432 788.035 540.379 787.039 537.904C783.747 529.722 788.216 516.862 795.974 512.635C798.359 523.442 794.798 533.284 792.2 543.639ZM954.079 583.943C953.204 584.999 952.72 585.604 952.207 586.208C944.419 596.08 936.78 606.012 928.81 615.734C921.143 625.062 912.599 633.515 901.428 638.739C900.28 639.282 899.074 639.764 897.231 640.55C898.59 638.043 899.647 636.232 900.583 634.359C909.218 616.971 917.942 599.611 926.366 582.102C932.795 568.848 939.286 555.595 944.871 541.95C949.823 529.843 951.966 516.952 950.003 503.788C948.735 495.275 944.387 488.724 935.694 486.491C921.503 482.836 908.794 485.766 899.375 497.419C894.546 503.427 890.499 510.219 887.027 517.103C872.747 545.391 863.027 575.308 856.203 606.192C854.09 615.763 852.49 625.455 850.316 634.995C848.232 643.9 839.81 651.146 831.568 651.63C829.636 643.991 829.576 642.904 831.81 635.87C834.436 627.446 837.184 619.054 839.9 610.662C842.708 602.027 846.09 593.544 848.324 584.758C851.766 571.051 845.879 561.422 832.354 557.286C830.24 556.651 828.066 556.228 825.923 555.746C821.154 554.659 816.352 553.602 811.732 552.546C814.482 540.742 817.319 529.36 819.734 517.856C821.998 507.019 816.474 499.26 805.574 497.328C794.223 495.335 783.234 500.619 777.558 510.672C772.155 520.243 770.554 530.568 771.248 541.375C771.823 550.1 775.566 557.104 782.751 562.206C785.83 564.38 786.435 565.89 785.528 569.663C781.574 586.238 776.864 602.6 770.675 618.511C764.607 633.967 757.634 648.882 745.678 660.867C744.832 661.712 743.867 662.558 742.811 663.102C740.726 664.218 739.067 663.554 738.552 661.29C738.1 659.267 737.496 656.943 738.07 655.1C744.863 632.639 751.051 609.967 760.29 588.32C762.282 583.64 764.155 578.902 766.298 573.619C759.807 572.23 753.739 570.599 747.58 569.694C740.939 568.698 734.96 570.479 731.187 576.486C728.983 579.958 727.231 583.762 725.631 587.566C722.311 595.446 719.956 603.868 715.88 611.295C705.707 629.892 694.868 648.127 684.031 666.331C682.852 668.355 680.046 669.411 677.419 671.372C676.604 667.51 674.823 664.279 675.547 661.803C681.072 643.298 686.898 624.851 693.088 606.555C695.955 598.042 699.79 589.891 703.442 580.954C696.922 579.415 690.642 577.392 684.242 576.516C674.43 575.188 669.72 578.236 665.614 587.203C665.282 587.928 664.92 588.652 664.678 589.378C658.006 608.668 651.455 627.991 647.319 647.975C645.024 659.055 645.175 670.106 649.554 680.823C653.539 690.634 660.935 695.223 671.35 695.555C680.86 695.827 688.075 692.235 692.936 683.871C697.767 675.539 702.87 667.358 707.88 659.146C708.303 658.42 708.816 657.758 709.602 656.61C709.662 658.21 709.692 659.267 709.752 660.294C710.235 666.18 710.174 672.128 712.862 677.623C716.546 685.11 723.307 688.491 731.459 686.86C737.376 685.684 742.207 682.452 746.674 678.648C758.116 668.927 766.872 656.972 773.151 643.538C782.328 623.975 790.662 603.99 799.326 584.186C801.198 579.867 802.918 575.46 804.73 571.083C809.408 576.727 810.828 582.947 809.167 589.83C807.386 597.136 805.666 604.412 803.854 611.688C800.14 626.511 797.544 641.395 799.356 656.792C801.016 670.74 811.975 678.588 825.41 674.543C830.572 672.972 835.342 670.075 840.292 667.72C842.074 666.875 843.766 665.878 845.879 664.732C845.879 669.712 845.848 674.211 845.879 678.708C845.939 683.238 845.879 687.736 846.151 692.235C846.543 698.575 846.844 704.944 847.78 711.224C849.743 724.476 856.052 730.967 868.884 732.628C887.963 735.134 901.336 725.746 906.591 709.171C910.726 696.159 908.672 683.902 902.062 672.188C900.732 669.834 899.255 667.539 897.744 665.003C924.734 647.735 942.275 622.616 957.52 595.506V590.192C956.435 588.199 955.347 586.208 954.079 583.943Z" fill="white"/>
<path d="M512.22 736.703C499.206 731.874 493.47 719.194 495.645 706.334C496.34 702.227 497.878 698.242 499.238 693.593C504.189 697.941 508.929 700.929 514.544 702.287C522.576 704.221 530.424 703.133 538.001 700.386C552.794 695.042 566.32 687.163 579.21 678.227C586.457 673.185 591.981 666.573 594.517 657.094C590.804 656.187 586.97 654.709 583.045 654.377C566.622 652.987 550.32 651.025 534.892 644.745C524.476 640.489 514.694 635.206 507.358 626.39C496.008 612.745 493.984 597.135 498.876 580.471C502.68 567.641 509.532 556.229 516.96 545.239C536.734 516.046 563.332 495.003 595.181 480.391C613.234 472.15 635.816 475.773 649.07 488.906C658.52 498.294 662.202 510.038 661.146 523.05C659.757 540.107 656.468 556.833 650.489 572.923C645.689 585.966 640.165 598.706 631.197 609.574C628.572 612.745 625.764 615.945 622.533 618.45C615.228 624.186 606.925 624.065 600.012 617.877C594.517 612.955 589.657 607.31 584.525 601.997C584.948 601.423 585.037 601.091 585.248 601.061C596.057 597.679 603.876 590.555 610.246 581.498C622.896 563.414 630.472 543.338 633.914 521.661C634.306 519.215 634.73 516.741 634.7 514.295C634.638 508.075 629.929 504.151 623.772 504.966C618.126 505.721 613.114 508.015 608.313 510.945C580.418 527.85 558.289 550.371 542.198 578.75C537.698 586.721 534.197 595.143 533.897 604.473C533.504 615.763 539.3 624.095 550.289 626.813C557.988 628.715 565.926 629.561 573.777 630.677C589.717 632.881 605.717 634.631 621.568 637.319C627.001 638.225 632.314 640.79 637.237 643.449C644.058 647.13 645.901 653.47 643.124 660.686C641.01 666.15 637.508 670.649 633.613 674.935C615.498 694.922 595.544 712.642 571.513 725.291C560.373 731.15 548.961 736.342 536.31 738.002C528.22 739.089 520.13 739.633 512.22 736.703Z" fill="white"/>
<path d="M572.75 834.157C570.94 830.565 570.879 826.67 570.968 822.775C571.211 810.971 574.471 799.741 577.219 788.419C578.667 782.321 580.207 776.253 581.778 770.185C582.2 768.645 582.714 767.135 583.407 765.717C584.735 762.999 587 761.43 590.019 761.762C593.371 762.154 596.691 763.061 600.163 763.754C597.868 771.182 595.786 777.974 593.491 785.431C594.88 784.917 595.666 784.797 596.238 784.405C601.31 780.993 606.382 777.611 611.332 774.05C612.812 772.993 614.14 771.603 615.227 770.125C618.548 765.566 619.726 760.585 616.647 755.513C613.627 750.47 608.646 749.053 603.091 749.685C593.731 750.713 585.46 754.637 577.852 760.011C567.92 767.015 559.558 775.589 553.459 786.185C550.138 791.982 547.45 797.869 549.535 805.629C544.643 803.726 540.296 802.367 536.251 800.375C532.627 798.593 531.027 794.699 532.447 790.895C533.866 787.061 535.526 783.046 538.092 779.937C553.158 761.671 571.634 748.177 594.396 740.902C601.732 738.546 609.16 738.243 616.676 739.542C625.794 741.113 632.616 749.987 633.191 760.403C633.583 767.347 630.715 772.902 626.186 777.823C620.088 784.465 612.45 788.842 604.48 792.797C603.031 793.553 601.552 794.306 599.8 795.183C600.707 796.359 601.371 797.295 602.124 798.111C608.496 805.115 614.895 812.058 621.266 819.093C627.152 825.583 633.432 831.47 642.943 832.527C640.344 839.441 632.768 842.762 626.186 840.134C621.114 838.142 616.555 835.243 612.842 831.229C605.747 823.59 598.744 815.833 591.739 808.133C591.136 807.469 590.562 806.835 589.627 805.779C586.848 817.19 585.611 828.299 586.94 839.562C581.143 841.855 575.527 839.683 572.75 834.157Z" fill="white"/>
<path d="M668.03 775.77C667.762 776.916 667.492 778.066 667.224 779.214C666.418 782.656 665.61 786.102 664.778 789.54C663.946 792.978 663.079 796.407 662.188 799.824C661.891 800.964 661.603 802.106 661.298 803.242C661.223 803.518 661.132 803.792 661.031 804.064C660.928 804.336 660.814 804.606 660.688 804.874C659.938 806.48 658.799 807.998 657.644 809.31C655.35 811.938 651.455 811.183 650.067 807.983C649.739 807.228 649.5 806.432 649.282 805.627C648.976 804.498 648.724 803.343 648.406 802.216C648.632 799.771 648.992 797.387 649.498 795.07C650.508 790.431 652.11 786.05 654.418 781.94C655.572 779.884 656.904 777.898 658.43 775.98C659.086 775.166 659.811 774.516 660.6 774.012C660.863 773.843 661.132 773.691 661.41 773.555C662.52 773.007 663.743 772.704 665.071 772.599C667.335 772.388 668.543 773.596 668.03 775.77ZM847.66 766.11C845.698 765.234 844.551 766.11 843.614 767.83C841.894 771.03 840.264 774.291 838.179 777.248C836.943 779.03 834.98 780.268 833.228 781.868C831.207 777.912 831.207 776.796 832.987 770.094C835.282 761.4 837.698 752.704 839.84 743.979C840.836 739.934 839.146 736.675 835.764 735.134C829.758 732.416 821.907 734.983 818.798 740.78C814.603 748.599 810.496 756.478 806.33 764.328C806.21 764.298 806.39 764.358 806.27 764.328C808.926 744.523 814.42 725.472 820.338 705.94C816.534 705.367 813.092 704.703 809.62 704.4C805.574 704.008 802.918 706.123 801.439 709.775C800.866 711.163 800.351 712.612 800.08 714.062C796.428 731.995 792.502 749.836 789.392 767.859C787.4 779.242 781 786.698 771.37 791.982C768.382 793.612 765.03 792.374 763.974 789.143C763.642 788.147 763.459 787.031 763.339 785.974C762.192 774.592 765.18 764.086 770.314 754.063C770.584 753.52 770.916 752.886 771.399 752.583C772.547 751.919 773.906 750.863 774.962 751.043C775.778 751.164 776.714 752.976 776.834 754.123C777.106 756.75 778.555 758.259 780.848 759.74C781.724 758.591 783.023 757.595 783.295 756.388C784.592 750.319 781.483 744.01 774.238 743.618C766.056 743.226 758.176 747.18 753.106 753.339C745.678 762.366 743.414 768.615 743.746 783.891L743.988 786.91C741.723 784.192 740.968 780.992 740.576 777.13C740.154 772.75 740.576 768.343 741.572 764.086C741.904 762.576 742.236 761.036 742.447 759.527C742.9 756.086 740.636 752.735 737.224 752.011C730.222 750.562 724.154 752.976 720.772 759.226C716.514 767.044 712.68 775.106 708.635 783.046C708.212 783.92 707.79 784.796 707.367 785.672C707.156 785.582 706.914 785.491 706.672 785.4C709.148 776.374 711.594 767.316 714.16 757.866C710.476 757.474 707.247 756.902 704.015 756.842C699.396 756.78 697.042 758.44 695.986 762.939C694.174 770.576 692.695 778.275 691.124 785.974C690.19 790.563 689.706 795.242 688.439 799.71C687.17 804.087 684.031 807.167 679.23 809.492C679.23 806.292 678.778 803.515 679.29 800.948C680.771 793.883 682.52 786.851 684.392 779.846C685.872 774.351 687.714 768.947 689.403 763.543C681.736 759.679 677.087 760.343 671.322 765.778C670.867 766.199 669.69 766.351 669.086 766.078C659.698 762.064 651.758 764.659 644.904 771.482C631.952 784.283 629.084 799.8 633.432 816.948C634.822 822.534 638.624 826.036 644.482 827.092C651.062 828.24 655.774 825.342 659.516 820.299C661.236 818.006 662.867 815.651 664.588 813.206C665.614 815.076 666.279 816.738 667.306 818.156C669.9 821.9 675.063 822.624 678.928 820.21C680.196 819.395 681.435 818.488 682.582 817.522C685.208 815.258 687.744 812.872 690.159 810.699C691.155 812.542 691.97 814.564 693.238 816.194C695.382 818.971 698.492 819.575 701.842 819.123C704.983 818.67 705.072 815.922 705.647 813.687C708.967 800.916 713.375 788.57 719.594 776.856C720.016 776.072 720.5 775.316 720.952 774.531C721.375 775.77 721.315 776.827 721.194 777.852C720.591 782.834 719.594 787.846 719.503 792.856C719.412 796.932 719.835 801.19 721.012 805.084C722.944 811.484 729.012 813.568 734.81 810.126C737.044 808.798 739.067 806.986 740.908 805.115C742.991 803.031 744.772 800.646 746.764 798.292C747.248 798.864 747.67 799.318 748.034 799.8C751.595 804.54 756.426 806.684 762.252 806.715C768.924 806.744 773.996 803.423 778.555 798.956C781.302 796.268 784.14 793.672 786.978 791.016C787.431 792.406 787.792 793.914 788.367 795.394C789.816 799.107 793.408 801.22 797.606 801.22C801.62 801.22 802.344 798.262 803.371 795.394C807.356 784.344 811.371 773.295 815.478 762.275C816.202 760.283 817.379 758.41 818.346 756.478C818.616 756.57 818.859 756.659 819.1 756.75C818.616 760.162 818.104 763.543 817.62 766.955C816.746 773.264 816.02 779.604 817.923 785.883C820.428 794.306 827.222 796.631 834.315 791.528C841.712 786.186 846 778.668 849.29 770.396C850.106 768.343 849.622 767.015 847.66 766.11Z" fill="white"/>
<path d="M849.139 929.433C848.815 930.045 848.422 930.629 847.962 931.187C846.83 932.615 845.504 933.474 843.979 933.867C843.634 933.958 843.287 934.047 842.92 934.085H835.915V911.987L842.859 911.958C843.66 912.037 844.38 912.265 845.066 912.559C846.114 913.011 847.035 913.722 847.838 914.698C848.096 915.009 848.362 915.303 848.594 915.67C848.79 915.982 848.935 916.309 849.099 916.627C849.904 918.214 850.304 919.923 850.292 921.795C850.29 922.118 850.314 922.433 850.284 922.765V923.158C850.49 925.513 850.116 927.594 849.139 929.433ZM853.455 910.627C850.77 907.338 847.419 905.497 843.192 905.103H829.031V940.97H843.374L843.432 940.939C847.478 940.607 850.888 938.675 853.607 935.233C856.355 931.67 857.563 927.505 857.17 923.158C857.591 918.386 856.324 914.19 853.455 910.627Z" fill="white"/>
<path d="M530.147 378.287C533.367 382.191 536.548 388.807 532.237 391.416C473.161 427.195 436.635 467.339 399.215 531.093C396.623 535.508 389.72 530.848 390.375 525.813C392.576 508.896 393.203 490.991 391.072 473.136C382.096 397.964 424.544 353.44 496.919 363.057C502.72 363.829 512.437 369.589 516.312 372.152C525.368 378.145 524.117 381.66 527.103 383.711C529.3 385.223 528.588 380.017 528.275 378.579M515.616 400.731C503.591 378.999 466.743 375.092 464.739 397.417C461.552 432.613 515.616 400.731 515.616 400.731Z" fill="white"/>
</g>
</svg>
