<svg width="12787" height="3260" viewBox="0 0 12787 3260" fill="none" xmlns="http://www.w3.org/2000/svg">
<path d="M4492.12 2720.69C4489.64 2727.31 4485.93 2733.55 4481.88 2739.42C4446.81 2792.64 4412.99 2792.29 4379.16 2738.32C4357.74 2703.82 4345.63 2665.27 4346.25 2621.59C4346.87 2585.97 4346.25 2550.75 4346.25 2515.52H4349.36C4352.14 2446.84 4354.94 2378.22 4357.44 2309.58C4357.74 2292.31 4358.98 2274.69 4375.75 2272.86C4385.04 2272.13 4396.53 2279.47 4404.3 2287.19C4453.96 2335.27 4497.7 2388.12 4513.53 2465.94C4531.24 2554.41 4520.67 2638.48 4492.12 2720.69ZM4537.75 1325.45C4598.58 1040.97 4670.89 761.246 4772.38 492.907C4793.17 438.581 4821.74 388.292 4846.26 335.798C4870.46 283.677 4908.64 256.879 4958.92 246.6C4980.01 285.882 4992.43 324.79 4984.68 376.555C4947.43 628.358 4863.32 859.993 4766.8 1085C4670.89 1308.92 4565.06 1526.97 4463.57 1747.58C4460.79 1753.82 4456.74 1758.96 4453.33 1764.84C4451.78 1764.1 4450.55 1763.37 4449 1762.62C4478.47 1616.91 4506.71 1470.81 4537.75 1325.45ZM3481.9 713.518C3453.98 698.847 3439.08 673.88 3428.84 643.791C3394.99 544.299 3440.94 387.936 3520.69 336.544C3545.21 467.941 3508.6 587.617 3481.9 713.518ZM5146.06 1203.57C5137.07 1216.41 5132.09 1223.77 5126.81 1231.11C5046.75 1351.15 4968.22 1471.91 4886.28 1590.11C4807.47 1703.53 4719.63 1806.31 4604.79 1869.83C4592.99 1876.43 4580.59 1882.3 4561.64 1891.85C4575.61 1861.37 4586.48 1839.35 4596.1 1816.57C4684.87 1605.16 4774.56 1394.08 4861.16 1181.18C4927.25 1020.04 4993.98 858.89 5051.4 692.978C5102.3 545.774 5124.33 389.038 5104.16 228.978C5091.12 125.465 5046.42 45.8162 4957.05 18.6613C4811.17 -25.7754 4680.51 9.84222 4583.68 151.534C4534.04 224.585 4492.44 307.168 4456.74 390.87C4309.94 734.821 4210.02 1098.58 4139.86 1474.1C4118.14 1590.47 4101.69 1708.31 4079.35 1824.31C4057.92 1932.59 3971.34 2020.68 3886.61 2026.57C3866.75 1933.69 3866.13 1920.48 3889.09 1834.94C3916.1 1732.52 3944.35 1630.48 3972.27 1528.44C4001.13 1423.45 4035.9 1320.31 4058.87 1213.48C4094.25 1046.82 4033.73 929.736 3894.69 879.447C3872.96 871.73 3850.6 866.591 3828.58 860.722C3779.55 847.509 3730.19 834.654 3682.69 821.814C3710.96 678.29 3740.12 539.906 3764.95 400.03C3788.22 268.259 3731.43 173.922 3619.38 150.431C3502.69 126.195 3389.72 190.442 3331.37 312.68C3275.82 429.049 3259.36 554.593 3266.5 685.991C3272.41 792.081 3310.89 877.242 3384.75 939.269C3416.4 965.71 3422.63 984.062 3413.31 1029.94C3372.65 1231.47 3324.24 1430.42 3260.61 1623.88C3198.23 1811.81 3126.54 1993.15 3003.63 2138.88C2994.94 2149.16 2985.02 2159.44 2974.16 2166.05C2952.72 2179.62 2935.67 2171.55 2930.38 2144.02C2925.73 2119.43 2919.52 2091.17 2925.42 2068.77C2995.25 1795.66 3058.87 1519.99 3153.85 1256.79C3174.32 1199.89 3193.58 1142.27 3215.61 1078.04C3148.88 1061.15 3086.5 1041.32 3023.19 1030.31C2954.92 1018.2 2893.45 1039.86 2854.66 1112.9C2832 1155.11 2813.99 1201.37 2797.54 1247.62C2763.41 1343.43 2739.21 1445.84 2697.3 1536.14C2592.72 1762.26 2481.29 1983.98 2369.88 2205.32C2357.77 2229.93 2328.91 2242.77 2301.91 2266.62C2293.54 2219.65 2275.22 2180.37 2282.67 2150.26C2339.47 1925.26 2399.35 1700.97 2463 1478.51C2492.47 1375 2531.89 1275.89 2569.43 1167.22C2502.4 1148.52 2437.84 1123.92 2372.05 1113.27C2271.18 1097.12 2222.77 1134.18 2180.55 1243.21C2177.13 1252.03 2173.42 1260.83 2170.93 1269.65C2102.34 1504.2 2034.99 1739.15 1992.47 1982.13C1968.88 2116.85 1970.43 2251.21 2015.45 2381.53C2056.42 2500.81 2132.45 2556.61 2239.52 2560.65C2337.29 2563.96 2411.46 2520.28 2461.43 2418.59C2511.09 2317.28 2563.55 2217.8 2615.06 2117.95C2619.41 2109.13 2624.68 2101.08 2632.76 2087.12C2633.37 2106.57 2633.69 2119.43 2634.31 2131.91C2639.27 2203.49 2638.64 2275.81 2666.27 2342.62C2704.14 2433.65 2773.65 2474.76 2857.46 2454.93C2918.29 2440.63 2967.95 2401.34 3013.87 2355.08C3131.5 2236.88 3221.52 2091.53 3286.06 1928.18C3380.41 1690.32 3466.08 1447.32 3555.15 1206.52C3574.39 1154.01 3592.07 1100.43 3610.7 1047.21C3658.8 1115.83 3673.4 1191.46 3656.32 1275.15C3638.01 1363.99 3620.32 1452.46 3601.7 1540.92C3563.52 1721.15 3536.83 1902.12 3555.46 2089.34C3572.53 2258.93 3685.19 2354.35 3823.3 2305.17C3876.37 2286.07 3925.4 2250.84 3976.3 2222.21C3994.61 2211.93 4012 2199.81 4033.73 2185.88C4033.73 2246.43 4033.41 2301.13 4033.73 2355.81C4034.35 2410.89 4033.73 2465.58 4036.53 2520.28C4040.56 2597.37 4043.65 2674.81 4053.28 2751.17C4073.45 2912.3 4138.31 2991.22 4270.23 3011.42C4466.37 3041.88 4603.85 2927.74 4657.87 2726.21C4700.37 2567.99 4679.26 2418.96 4611.3 2276.54C4597.64 2247.91 4582.45 2220.01 4566.92 2189.17C4844.38 1979.21 5024.71 1673.8 5181.44 1344.16V1279.56C5170.28 1255.32 5159.09 1231.12 5146.06 1203.57Z" fill="white"/>
<path d="M175.019 3170.63C41.2379 3111.91 -17.7298 2957.73 4.62639 2801.37C11.7678 2751.44 27.5857 2702.98 41.5669 2646.45C92.4612 2699.32 141.19 2735.65 198.91 2752.17C281.482 2775.67 362.161 2762.45 440.059 2729.05C592.139 2664.07 731.183 2568.28 863.703 2459.62C938.201 2398.31 994.989 2317.92 1021.06 2202.67C982.886 2191.64 943.478 2173.66 903.124 2169.63C734.294 2152.73 566.698 2128.87 408.094 2052.51C301.014 2000.76 200.459 1936.53 125.043 1829.34C8.35472 1663.43 -12.4526 1473.63 37.8386 1271.02C76.9448 1115.01 147.385 976.254 223.747 842.635C427.037 487.677 700.465 231.821 1027.89 54.1551C1213.48 -46.0505 1445.62 -2.00307 1581.88 157.684C1679.03 271.832 1716.89 414.626 1706.03 572.838C1691.75 780.236 1657.93 983.598 1596.47 1179.24C1547.12 1337.83 1490.33 1492.73 1398.14 1624.87C1371.15 1663.43 1342.28 1702.33 1309.07 1732.8C1233.97 1802.54 1148.62 1801.07 1077.55 1725.83C1021.06 1665.99 971.098 1597.35 918.339 1532.74C922.684 1525.77 923.603 1521.73 925.768 1521.36C1036.89 1480.25 1117.27 1393.63 1182.76 1283.5C1312.8 1063.62 1390.68 819.517 1426.08 555.945C1430.11 526.212 1434.46 496.123 1434.15 466.39C1433.52 390.762 1385.11 343.051 1321.81 352.956C1263.77 362.132 1212.25 390.033 1162.89 425.65C876.121 631.2 648.625 905.035 483.208 1250.09C436.947 1347 400.952 1449.41 397.868 1562.85C393.825 1700.13 453.409 1801.44 566.383 1834.48C645.528 1857.61 727.139 1867.89 807.847 1881.46C971.715 1908.26 1136.2 1929.54 1299.15 1962.23C1355.01 1973.24 1409.63 2004.43 1460.23 2036.75C1530.36 2081.51 1549.3 2158.6 1520.75 2246.34C1499.03 2312.78 1463.02 2367.48 1422.98 2419.6C1236.75 2662.61 1031.61 2878.07 784.572 3031.87C670.05 3103.11 552.731 3166.23 422.678 3186.42C339.504 3199.63 256.343 3206.25 175.019 3170.63Z" fill="white"/>
<path d="M6681.02 3040.49C6636.12 2926.02 6634.6 2801.9 6636.81 2677.78C6642.84 2301.61 6723.74 1943.71 6791.95 1582.92C6827.88 1388.57 6866.1 1195.19 6905.09 1001.81C6915.58 952.736 6928.32 904.636 6945.52 859.426C6978.48 772.829 7034.7 722.818 7109.62 733.398C7192.82 745.89 7275.21 774.784 7361.38 796.879C7304.43 1033.6 7252.74 1250.05 7195.79 1487.7C7230.27 1471.3 7249.77 1467.47 7263.96 1454.98C7389.84 1346.24 7515.72 1238.49 7638.59 1124.99C7675.32 1091.3 7708.28 1047.02 7735.25 999.901C7817.68 854.625 7846.9 695.878 7770.49 534.243C7695.54 373.542 7571.91 328.374 7434.05 348.515C7201.75 381.276 6996.48 506.326 6807.66 677.607C6561.17 900.812 6353.62 1174.03 6202.26 1511.7C6119.83 1696.45 6053.11 1884.05 6104.87 2131.35C5983.46 2070.72 5875.58 2027.42 5775.18 1963.94C5685.24 1907.12 5645.53 1783.05 5680.77 1661.82C5715.98 1539.62 5757.18 1411.68 5820.88 1312.59C6194.78 730.508 6653.33 300.458 7218.26 68.6271C7400.33 -6.45436 7584.68 -16.0997 7771.22 25.2865C7997.5 75.3408 8166.83 358.16 8181.09 690.1C8190.82 911.392 8119.64 1088.41 8007.23 1245.24C7855.9 1456.89 7666.32 1596.39 7468.53 1722.42C7432.56 1746.51 7395.86 1770.52 7352.38 1798.48C7374.88 1835.95 7391.36 1865.78 7410.06 1891.79C7568.2 2114.99 7727.01 2336.24 7885.12 2560.42C8031.22 2767.27 8187.08 2954.87 8423.12 2988.56C8358.63 3208.88 8170.6 3314.72 8007.23 3230.97C7881.35 3167.49 7768.21 3075.12 7676.05 2947.18C7499.97 2703.74 7326.17 2456.53 7152.31 2211.15C7137.35 2189.99 7123.09 2169.8 7099.89 2136.15C7030.93 2499.79 7000.22 2853.82 7033.22 3212.74C6889.33 3285.83 6749.95 3216.61 6681.02 3040.49Z" fill="white"/>
<path d="M9152.88 1526.23C9147.52 1550.72 9142.13 1575.27 9136.77 1599.79C9120.64 1673.31 9104.48 1746.89 9087.83 1820.33C9071.19 1893.75 9053.86 1966.99 9036.04 2039.97C9030.09 2064.32 9024.33 2088.69 9018.23 2112.95C9016.73 2118.85 9014.92 2124.71 9012.89 2130.52C9010.84 2136.33 9008.55 2142.09 9006.04 2147.81C8991.02 2182.12 8968.25 2214.53 8945.15 2242.55C8899.25 2298.68 8821.35 2282.56 8793.59 2214.22C8787.03 2198.1 8782.25 2181.1 8777.88 2163.9C8771.77 2139.78 8766.73 2115.12 8760.36 2091.06C8764.89 2038.83 8772.09 1987.92 8782.2 1938.42C8802.42 1839.36 8834.45 1745.78 8880.61 1658.02C8903.71 1614.11 8930.35 1571.68 8960.86 1530.73C8973.98 1513.33 8988.49 1499.46 9004.28 1488.7C9009.53 1485.08 9014.92 1481.84 9020.47 1478.93C9042.68 1467.23 9067.14 1460.77 9093.7 1458.52C9138.99 1454.02 9163.15 1479.82 9152.88 1526.23ZM12745.9 1319.92C12706.6 1301.21 12683.7 1319.92 12664.9 1356.66C12630.5 1425 12597.9 1494.65 12556.2 1557.81C12531.5 1595.86 12492.3 1622.31 12457.2 1656.48C12416.8 1571.99 12416.8 1548.16 12452.4 1405.01C12498.3 1219.35 12546.6 1033.62 12589.5 847.277C12609.4 760.88 12575.6 691.285 12507.9 658.366C12387.8 600.332 12230.8 655.148 12168.6 778.962C12084.7 945.946 12002.5 1114.21 11919.2 1281.88C11916.8 1281.22 11920.4 1282.51 11918 1281.88C11971.1 858.895 12081 452.028 12199.4 34.8819C12123.3 22.6371 12054.4 8.45628 11985 1.99221C11904.1 -6.37977 11850.9 38.7833 11821.4 116.779C11809.9 146.423 11799.6 177.376 11794.2 208.33C11721.1 591.334 11642.6 972.372 11580.4 1357.28C11540.6 1600.38 11412.5 1759.62 11219.9 1872.47C11160.1 1907.3 11093.1 1880.85 11072 1811.85C11065.3 1790.58 11061.7 1766.74 11059.3 1744.16C11036.3 1501.09 11096.1 1276.7 11198.8 1062.64C11204.2 1051.05 11210.8 1037.5 11220.5 1031.03C11243.5 1016.85 11270.6 994.299 11291.8 998.143C11308.1 1000.73 11326.8 1039.43 11329.2 1063.92C11334.6 1120.02 11363.6 1152.26 11409.5 1183.89C11427 1159.35 11453 1138.07 11458.4 1112.3C11484.4 982.681 11422.2 847.932 11277.3 839.56C11113.6 831.188 10956 915.648 10854.6 1047.18C10706 1239.96 10660.7 1373.43 10667.4 1699.68L10672.2 1764.15C10626.9 1706.12 10611.8 1637.77 10604 1555.28C10595.5 1461.73 10604 1367.62 10623.9 1276.7C10630.5 1244.46 10637.2 1211.57 10641.4 1179.34C10650.5 1105.84 10605.2 1034.28 10536.9 1018.82C10396.9 987.863 10275.5 1039.43 10207.8 1172.9C10122.7 1339.88 10046 1512.05 9965.08 1681.63C9956.62 1700.31 9948.17 1719.02 9939.71 1737.72C9935.5 1735.79 9930.65 1733.85 9925.82 1731.92C9975.34 1539.13 10024.3 1345.69 10075.6 1143.86C10001.9 1135.48 9937.31 1123.27 9872.67 1121.99C9780.28 1120.68 9733.18 1156.13 9712.06 1252.21C9675.82 1415.32 9646.24 1579.74 9614.82 1744.16C9596.13 1842.17 9586.45 1942.1 9561.11 2037.52C9535.72 2131.01 9472.94 2196.79 9376.91 2246.45C9376.91 2178.11 9367.86 2118.79 9378.11 2063.98C9407.74 1913.08 9442.73 1762.9 9480.17 1613.28C9509.77 1495.93 9546.6 1380.52 9580.39 1265.11C9427.04 1182.58 9334.05 1196.76 9218.73 1312.83C9209.63 1321.83 9186.08 1325.08 9174 1319.24C8986.22 1233.53 8827.41 1288.94 8690.32 1434.65C8431.26 1708.05 8373.89 2039.46 8460.86 2405.69C8488.65 2524.97 8564.71 2599.78 8681.87 2622.33C8813.48 2646.85 8907.73 2584.95 8982.6 2477.25C9017 2428.27 9049.62 2377.98 9084.05 2325.76C9104.56 2365.71 9117.86 2401.19 9138.4 2431.49C9190.3 2511.45 9293.56 2526.91 9370.88 2475.34C9396.24 2457.94 9421.02 2438.58 9443.95 2417.93C9496.49 2369.58 9547.22 2318.64 9595.52 2272.22C9615.44 2311.58 9631.73 2354.77 9657.1 2389.57C9699.98 2448.89 9762.2 2461.79 9829.19 2452.13C9892.03 2442.45 9893.81 2383.76 9905.31 2336.04C9971.72 2063.29 10059.9 1799.6 10184.3 1549.44C10192.7 1532.7 10202.4 1516.55 10211.4 1499.78C10219.9 1526.23 10218.7 1548.81 10216.3 1570.71C10204.2 1677.1 10184.3 1784.14 10182.5 1891.15C10180.6 1978.21 10189.1 2069.13 10212.6 2152.31C10251.3 2288.99 10372.7 2333.5 10488.6 2259.98C10533.3 2231.61 10573.8 2192.92 10610.6 2152.96C10652.3 2108.45 10687.9 2057.51 10727.7 2007.25C10737.4 2019.47 10745.9 2029.15 10753.1 2039.46C10824.4 2140.69 10921 2186.48 11037.5 2187.13C11171 2187.76 11272.4 2116.83 11363.6 2021.43C11418.6 1964.02 11475.3 1908.58 11532.1 1851.86C11541.2 1881.53 11548.4 1913.74 11559.9 1945.34C11588.9 2024.65 11660.7 2069.78 11744.7 2069.78C11825 2069.78 11839.5 2006.6 11860 1945.34C11939.7 1709.36 12020 1473.38 12102.2 1238.03C12116.6 1195.48 12140.2 1155.47 12159.5 1114.21C12164.9 1116.18 12169.8 1118.08 12174.6 1120.02C12164.9 1192.89 12154.7 1265.11 12145 1337.98C12127.5 1472.73 12113 1608.13 12151.1 1742.22C12201.2 1922.11 12337.1 1971.77 12478.9 1862.79C12626.9 1748.69 12712.7 1588.14 12778.5 1411.47C12794.8 1367.62 12785.1 1339.26 12745.9 1319.92Z" fill="white"/>
</svg>
