<svg width="1440" height="1440" viewBox="0 0 1440 1440" fill="none" xmlns="http://www.w3.org/2000/svg">
<path d="M390.848 941L389.065 936.221L371.151 885.708L351.452 941H337.166L341.142 929.758L366.888 857.532H375.412L377.139 862.24L405.075 941H390.848Z" fill="black"/>
<path d="M470.376 923.013C468.917 926.035 466.876 928.914 464.366 931.586C458.181 937.838 451.352 941 443.943 941C435.656 940.86 428.481 936.923 422.469 929.197C416.287 921.045 413.133 910.93 413.133 899.269C413.133 887.394 416.287 877.347 422.588 869.196C428.481 861.47 435.656 857.532 443.943 857.532C448.551 857.532 453.161 858.87 457.656 861.609C463.608 865.193 467.866 870.04 470.376 875.942L471.718 879.104L459.758 886.268L458.413 883.178C457.831 881.772 456.898 880.295 455.612 878.893C452.228 875.309 448.378 873.556 443.943 873.556C439.568 873.556 435.717 875.659 432.331 879.948C428.363 885.145 426.438 891.469 426.438 899.269C426.438 905.94 427.956 911.703 431.164 916.832C434.666 922.24 438.81 924.983 443.943 924.983C446.103 924.983 448.319 924.418 450.479 923.295C454.388 921.328 457.13 918.659 458.764 915.072L460.225 911.982L471.834 919.993L470.376 923.013Z" fill="black"/>
<path d="M539.316 941L537.529 936.221L519.603 885.708L499.886 941H485.646L489.567 929.758L515.333 857.532H523.867L525.596 862.24L553.556 941H539.316Z" fill="black"/>
<path d="M624.805 941H614.849L586.244 890.976V941H573.123V857.532H583.079L611.737 907.559L611.798 857.532H624.919L624.805 941Z" fill="black"/>
<path d="M696.282 873.553H675.908V941H662.732V873.553H642.184V857.532H696.282V873.553Z" fill="black"/>
<path d="M725.057 941H711.245V857.532H725.057V941Z" fill="black"/>
<path d="M788.363 941H746.926V857.532H759.694V924.982H788.363V941Z" fill="black"/>
<path d="M855.604 941L853.786 936.221L835.553 885.708L815.505 941H801.024L805.009 929.758L831.214 857.532H839.892L841.71 862.24L870.085 941H855.604Z" fill="black"/>
<path d="M1074.96 931.797C1070 937.91 1063.62 941 1055.97 941C1049.36 941 1043.6 938.611 1038.81 934.046C1033.73 929.054 1031.23 923.013 1031.23 916.127V912.615H1044.17L1044.23 915.988C1044.28 917.672 1044.91 919.292 1046.11 920.837C1048.5 923.577 1051.75 924.983 1055.97 924.983C1058.65 924.983 1061.05 924.279 1063.39 922.873C1067.26 920.415 1067.72 917.815 1067.72 916.127C1067.72 915.845 1067.66 915.637 1067.49 915.286C1067.21 914.582 1065.84 912.336 1058.6 908.823C1051.41 905.379 1047.02 903.201 1045.54 902.288C1037.1 897.159 1032.88 890.485 1032.88 882.405C1032.88 876.646 1034.59 871.374 1038.01 866.739C1042.57 860.626 1048.62 857.532 1055.97 857.532C1061.85 857.532 1067.04 859.642 1071.43 863.856C1076.5 868.845 1079.07 875.026 1079.07 882.405V885.917H1066.07V882.405C1066.07 880.649 1065.55 879.104 1064.52 877.63C1062.47 874.887 1059.68 873.552 1055.97 873.552C1053.81 873.552 1051.81 874.114 1049.87 875.377C1046.28 877.698 1045.88 880.509 1045.88 882.405C1045.88 882.616 1045.94 882.895 1046.05 883.249C1046.17 883.528 1047.42 885.846 1054.78 889.29C1062.02 892.874 1066.47 895.052 1068 895.965C1076.5 901.165 1080.72 907.979 1080.72 916.127C1080.66 921.889 1078.73 927.158 1074.96 931.797Z" fill="black"/>
<path d="M996.06 918.516C992.723 922.802 988.985 924.908 984.608 924.977C979.545 924.977 975.4 922.311 971.951 916.897C968.786 911.768 967.226 906.009 967.226 899.266C967.226 891.462 969.185 885.142 973.155 879.941C976.493 875.656 980.234 873.552 984.608 873.552C989.673 873.552 993.814 876.15 997.212 881.558C1000.44 886.69 1001.99 892.452 1001.99 899.266C1001.99 906.995 1000.03 913.316 996.06 918.516ZM1005.85 869.264C999.916 861.535 992.782 857.604 984.608 857.532C976.437 857.532 969.305 861.467 963.434 869.196C957.214 877.412 954.109 887.534 954.109 899.266C954.109 910.927 957.214 921.039 963.375 929.194C969.305 936.92 976.437 940.854 984.608 941C992.782 941 999.916 937.066 1005.79 929.268C1011.94 921.039 1015.11 910.998 1015.11 899.266C1015.11 887.534 1012 877.412 1005.85 869.264Z" fill="black"/>
<path d="M579.587 785.805C579.309 786.463 578.894 787.084 578.441 787.668C574.514 792.963 570.727 792.927 566.94 787.558C564.541 784.126 563.186 780.29 563.255 775.945C563.324 772.402 563.255 768.897 563.255 765.392H563.603C563.915 758.56 564.228 751.732 564.507 744.903C564.541 743.185 564.681 741.432 566.558 741.25C567.598 741.177 568.884 741.908 569.754 742.676C575.315 747.46 580.212 752.718 581.984 760.46C583.967 769.261 582.784 777.626 579.587 785.805ZM584.696 646.993C591.507 618.69 599.603 590.861 610.965 564.164C613.293 558.76 616.492 553.756 619.237 548.534C621.948 543.348 626.222 540.682 631.851 539.66C634.213 543.568 635.603 547.439 634.736 552.589C630.565 577.64 621.148 600.685 610.341 623.071C599.603 645.348 587.753 667.042 576.39 688.99C576.079 689.611 575.626 690.122 575.244 690.708C575.071 690.634 574.933 690.561 574.759 690.487C578.059 675.99 581.22 661.455 584.696 646.993ZM466.479 586.113C463.353 584.653 461.685 582.169 460.539 579.176C456.75 569.277 461.894 553.721 470.823 548.608C473.568 561.681 469.469 573.587 466.479 586.113ZM652.804 634.868C651.797 636.145 651.24 636.877 650.649 637.608C641.685 649.55 632.893 661.564 623.719 673.324C614.894 684.608 605.06 694.834 592.202 701.153C590.881 701.81 589.492 702.393 587.371 703.343C588.935 700.311 590.152 698.121 591.229 695.855C601.168 674.821 611.209 653.821 620.906 632.64C628.306 616.608 635.777 600.576 642.205 584.069C647.905 569.424 650.371 553.831 648.112 537.906C646.653 527.608 641.648 519.684 631.642 516.982C615.309 512.561 600.68 516.105 589.839 530.202C584.28 537.469 579.623 545.685 575.626 554.013C559.19 588.232 548.002 624.422 540.147 661.782C537.715 673.36 535.873 685.084 533.372 696.624C530.973 707.397 521.278 716.161 511.793 716.747C509.569 707.506 509.5 706.192 512.07 697.682C515.094 687.492 518.257 677.34 521.383 667.189C524.615 656.743 528.507 646.482 531.079 635.853C535.04 619.272 528.264 607.624 512.696 602.621C510.264 601.853 507.761 601.342 505.295 600.758C499.805 599.443 494.279 598.164 488.961 596.887C492.126 582.608 495.391 568.84 498.171 554.924C500.777 541.814 494.418 532.429 481.872 530.092C468.808 527.681 456.159 534.073 449.626 546.234C443.407 557.811 441.564 570.302 442.363 583.374C443.025 593.929 447.333 602.402 455.603 608.572C459.147 611.203 459.843 613.029 458.8 617.593C454.248 637.643 448.828 657.437 441.704 676.684C434.719 695.381 426.693 713.422 412.931 727.921C411.958 728.943 410.847 729.966 409.632 730.624C407.231 731.974 405.322 731.171 404.73 728.432C404.21 725.985 403.514 723.174 404.174 720.945C411.994 693.774 419.116 666.348 429.75 640.163C432.043 634.502 434.199 628.769 436.665 622.379C429.194 620.698 422.21 618.726 415.121 617.631C407.477 616.426 400.595 618.581 396.252 625.847C393.716 630.047 391.699 634.648 389.857 639.25C386.036 648.782 383.326 658.971 378.634 667.955C366.925 690.452 354.449 712.51 341.975 734.531C340.619 736.979 337.388 738.256 334.365 740.629C333.427 735.956 331.377 732.048 332.21 729.053C338.57 706.668 345.275 684.353 352.4 662.221C355.7 651.922 360.114 642.063 364.317 631.252C356.812 629.39 349.584 626.943 342.218 625.884C330.924 624.277 325.503 627.964 320.777 638.811C320.394 639.689 319.979 640.564 319.699 641.442C312.02 664.777 304.48 688.152 299.719 712.326C297.078 725.729 297.251 739.097 302.291 752.061C306.878 763.929 315.391 769.481 327.379 769.882C338.326 770.211 346.63 765.866 352.225 755.748C357.785 745.669 363.659 735.772 369.426 725.839C369.913 724.961 370.503 724.16 371.407 722.771C371.476 724.706 371.512 725.985 371.581 727.227C372.136 734.348 372.066 741.543 375.16 748.19C379.4 757.247 387.182 761.337 396.565 759.364C403.376 757.942 408.936 754.032 414.078 749.431C427.248 737.671 437.327 723.21 444.553 706.958C455.117 683.293 464.708 659.118 474.681 635.161C476.836 629.937 478.815 624.606 480.901 619.311C486.286 626.139 487.921 633.663 486.008 641.989C483.958 650.827 481.978 659.629 479.893 668.431C475.619 686.361 472.63 704.366 474.716 722.992C476.627 739.864 489.24 749.358 504.704 744.464C510.646 742.564 516.136 739.06 521.834 736.211C523.884 735.189 525.832 733.982 528.264 732.597C528.264 738.621 528.229 744.063 528.264 749.503C528.333 754.982 528.264 760.424 528.577 765.866C529.029 773.535 529.375 781.24 530.453 788.837C532.712 804.868 539.974 812.719 554.744 814.729C576.704 817.76 592.096 806.403 598.145 786.353C602.904 770.613 600.54 755.785 592.931 741.616C591.401 738.768 589.701 735.992 587.962 732.924C619.027 712.035 639.217 681.65 656.765 648.855V642.427C655.516 640.016 654.263 637.608 652.804 634.868Z" fill="black"/>
<path d="M111.596 812.423C96.6171 806.581 90.0149 791.242 92.518 775.686C93.3176 770.718 95.0886 765.897 96.654 760.273C102.352 765.533 107.808 769.147 114.271 770.791C123.516 773.13 132.549 771.813 141.27 768.491C158.298 762.026 173.865 752.496 188.703 741.686C197.044 735.586 203.402 727.588 206.321 716.121C202.047 715.025 197.635 713.236 193.117 712.834C174.214 711.154 155.449 708.78 137.691 701.183C125.702 696.034 114.444 689.644 106 678.98C92.9354 662.473 90.6058 643.591 96.2365 623.433C100.615 607.912 108.502 594.107 117.051 580.813C139.812 545.499 170.426 520.044 207.085 502.368C227.865 492.399 253.856 496.781 269.113 512.668C279.989 524.025 284.228 538.231 283.012 553.971C281.413 574.605 277.627 594.838 270.745 614.302C265.221 630.08 258.862 645.491 248.54 658.638C245.518 662.473 242.286 666.344 238.568 669.375C230.159 676.313 220.603 676.167 212.645 668.681C206.321 662.728 200.727 655.899 194.82 649.471C195.307 648.778 195.409 648.376 195.652 648.339C208.094 644.249 217.093 635.631 224.426 624.675C238.985 602.799 247.705 578.513 251.668 552.291C252.119 549.333 252.607 546.339 252.572 543.381C252.501 535.857 247.081 531.11 239.993 532.096C233.496 533.009 227.727 535.784 222.2 539.328C190.093 559.778 164.622 587.021 146.101 621.351C140.922 630.992 136.892 641.181 136.547 652.467C136.094 666.125 142.765 676.204 155.414 679.491C164.275 681.792 173.413 682.815 182.449 684.165C200.796 686.831 219.212 688.949 237.457 692.201C243.71 693.296 249.826 696.399 255.492 699.615C263.344 704.068 265.465 711.738 262.268 720.467C259.835 727.076 255.804 732.518 251.321 737.704C230.471 761.881 207.503 783.317 179.843 798.618C167.021 805.705 153.885 811.986 139.324 813.994C130.012 815.309 120.701 815.967 111.596 812.423Z" fill="black"/>
<path d="M770.568 793.395C765.541 782.007 765.37 769.659 765.619 757.311C766.293 719.886 775.352 684.278 782.988 648.384C787.011 629.048 791.291 609.809 795.655 590.57C796.83 585.687 798.256 580.902 800.183 576.404C803.873 567.789 810.168 562.813 818.556 563.866C827.87 565.108 837.096 567.983 846.744 570.181C840.367 593.732 834.58 615.266 828.204 638.91C832.064 637.278 834.246 636.898 835.836 635.655C849.93 624.837 864.024 614.116 877.78 602.825C881.893 599.473 885.583 595.068 888.603 590.38C897.832 575.926 901.103 560.133 892.549 544.052C884.157 528.064 870.315 523.57 854.88 525.574C828.871 528.833 805.888 541.274 784.748 558.315C757.149 580.521 733.911 607.704 716.964 641.299C707.735 659.679 700.266 678.343 706.061 702.946C692.467 696.914 680.388 692.606 669.147 686.291C659.077 680.639 654.631 668.295 658.577 656.234C662.519 644.076 667.132 631.347 674.264 621.489C716.127 563.578 767.467 520.793 830.719 497.728C851.104 490.258 871.745 489.299 892.63 493.416C917.965 498.396 936.924 526.534 938.52 559.558C939.61 581.574 931.64 599.185 919.054 614.789C902.111 635.845 880.885 649.724 858.74 662.262C854.713 664.659 850.604 667.048 845.736 669.829C848.255 673.558 850.1 676.525 852.194 679.112C869.9 701.319 887.68 723.331 905.383 745.635C921.74 766.213 939.191 784.877 965.619 788.23C958.398 810.149 937.346 820.679 919.054 812.347C904.96 806.031 892.293 796.841 881.974 784.112C862.26 759.894 842.801 735.299 823.335 710.885C821.661 708.78 820.064 706.772 817.466 703.424C809.745 739.602 806.307 774.825 810.001 810.533C793.892 817.804 778.286 810.918 770.568 793.395Z" fill="black"/>
<path d="M1019 648.772C1018.52 651.208 1018.04 653.65 1017.57 656.089C1016.13 663.403 1014.69 670.723 1013.21 678.028C1011.74 685.331 1010.19 692.616 1008.61 699.876C1008.08 702.298 1007.57 704.723 1007.03 707.137C1006.89 707.723 1006.73 708.307 1006.55 708.884C1006.37 709.462 1006.17 710.034 1005.94 710.604C1004.61 714.017 1002.58 717.241 1000.53 720.028C996.449 725.611 989.524 724.008 987.055 717.21C986.472 715.606 986.048 713.915 985.659 712.204C985.116 709.805 984.668 707.352 984.101 704.958C984.504 699.763 985.144 694.698 986.043 689.775C987.84 679.92 990.688 670.612 994.792 661.882C996.845 657.514 999.214 653.293 1001.93 649.22C1003.09 647.489 1004.38 646.109 1005.79 645.039C1006.25 644.679 1006.73 644.356 1007.23 644.067C1009.2 642.903 1011.37 642.26 1013.74 642.036C1017.76 641.588 1019.91 644.155 1019 648.772ZM1338.43 628.249C1334.94 626.388 1332.9 628.249 1331.23 631.903C1328.17 638.702 1325.28 645.631 1321.57 651.914C1319.37 655.698 1315.88 658.33 1312.77 661.729C1309.17 653.324 1309.17 650.953 1312.34 636.713C1316.42 618.244 1320.71 599.77 1324.52 581.232C1326.29 572.638 1323.29 565.715 1317.27 562.44C1306.59 556.667 1292.63 562.12 1287.1 574.437C1279.64 591.048 1272.34 607.786 1264.93 624.465C1264.72 624.4 1265.04 624.527 1264.83 624.465C1269.55 582.388 1279.32 541.915 1289.84 500.419C1283.08 499.201 1276.96 497.79 1270.78 497.147C1263.59 496.314 1258.86 500.807 1256.24 508.566C1255.22 511.514 1254.3 514.594 1253.82 517.673C1247.32 555.772 1240.34 593.676 1234.81 631.966C1231.27 656.148 1219.89 671.989 1202.76 683.215C1197.45 686.679 1191.49 684.047 1189.61 677.184C1189.02 675.068 1188.7 672.697 1188.48 670.451C1186.44 646.271 1191.76 623.949 1200.89 602.656C1201.37 601.503 1201.96 600.155 1202.82 599.512C1204.86 598.101 1207.27 595.858 1209.15 596.24C1210.6 596.498 1212.27 600.347 1212.48 602.783C1212.96 608.364 1215.54 611.57 1219.62 614.718C1221.18 612.276 1223.49 610.16 1223.97 607.596C1226.28 594.702 1220.75 581.298 1207.86 580.465C1193.32 579.632 1179.3 588.034 1170.29 601.118C1157.08 620.295 1153.05 633.572 1153.64 666.026L1154.07 672.439C1150.04 666.666 1148.7 659.868 1148.01 651.661C1147.25 642.356 1148.01 632.994 1149.78 623.949C1150.37 620.743 1150.96 617.471 1151.33 614.264C1152.14 606.953 1148.11 599.835 1142.04 598.297C1129.59 595.217 1118.8 600.347 1112.79 613.624C1105.22 630.235 1098.4 647.361 1091.2 664.23C1090.45 666.088 1089.7 667.949 1088.95 669.81C1088.58 669.618 1088.14 669.425 1087.71 669.233C1092.12 650.055 1096.47 630.813 1101.03 610.735C1094.48 609.902 1088.74 608.687 1082.99 608.559C1074.78 608.429 1070.59 611.956 1068.71 621.513C1065.49 637.739 1062.86 654.095 1060.07 670.451C1058.4 680.201 1057.54 690.141 1055.29 699.633C1053.03 708.933 1047.45 715.476 1038.91 720.416C1038.91 713.618 1038.11 707.717 1039.02 702.264C1041.66 687.254 1044.77 672.314 1048.09 657.432C1050.73 645.758 1054 634.277 1057.01 622.796C1043.37 614.587 1035.1 615.998 1024.85 627.544C1024.04 628.439 1021.95 628.762 1020.88 628.181C1004.18 619.655 990.062 625.167 977.875 639.662C954.843 666.859 949.743 699.826 957.475 736.257C959.945 748.123 966.707 755.564 977.123 757.808C988.824 760.247 997.203 754.088 1003.86 743.375C1006.92 738.503 1009.82 733.5 1012.88 728.305C1014.7 732.28 1015.88 735.809 1017.71 738.823C1022.32 746.777 1031.5 748.315 1038.38 743.185C1040.63 741.455 1042.84 739.528 1044.88 737.475C1049.55 732.665 1054.06 727.597 1058.35 722.98C1060.12 726.895 1061.57 731.192 1063.82 734.653C1067.64 740.554 1073.17 741.837 1079.12 740.877C1084.71 739.914 1084.87 734.075 1085.89 729.328C1091.8 702.196 1099.63 675.966 1110.69 651.081C1111.44 649.415 1112.3 647.809 1113.11 646.141C1113.86 648.772 1113.75 651.018 1113.54 653.197C1112.47 663.78 1110.69 674.428 1110.53 685.073C1110.37 693.732 1111.12 702.777 1113.22 711.051C1116.65 724.648 1127.44 729.076 1137.75 721.762C1141.72 718.94 1145.32 715.091 1148.6 711.117C1152.3 706.689 1155.47 701.621 1159.01 696.622C1159.87 697.837 1160.62 698.8 1161.27 699.826C1167.6 709.896 1176.19 714.451 1186.55 714.516C1198.42 714.578 1207.43 707.522 1215.54 698.032C1220.43 692.322 1225.47 686.806 1230.52 681.164C1231.33 684.115 1231.97 687.319 1232.99 690.463C1235.57 698.353 1241.95 702.842 1249.42 702.842C1256.56 702.842 1257.85 696.557 1259.67 690.463C1266.76 666.989 1273.9 643.515 1281.2 620.103C1282.49 615.87 1284.58 611.891 1286.3 607.786C1286.78 607.981 1287.21 608.171 1287.64 608.364C1286.78 615.613 1285.87 622.796 1285.01 630.045C1283.45 643.449 1282.16 656.919 1285.55 670.258C1290 688.152 1302.08 693.092 1314.7 682.252C1327.85 670.901 1335.48 654.93 1341.33 637.356C1342.78 632.994 1341.92 630.173 1338.43 628.249Z" fill="black"/>
<path d="M921.296 914.151C920.675 915.575 919.921 916.934 919.039 918.234C916.869 921.557 914.328 923.556 911.403 924.471C910.741 924.682 910.077 924.89 909.374 924.977H895.944V873.552L909.256 873.484C910.792 873.667 912.173 874.198 913.487 874.884C915.496 875.936 917.262 877.589 918.801 879.861C919.297 880.584 919.806 881.269 920.25 882.123C920.626 882.849 920.905 883.609 921.219 884.351C922.763 888.043 923.53 892.021 923.507 896.377C923.502 897.128 923.548 897.861 923.492 898.633V899.548C923.885 905.028 923.17 909.872 921.296 914.151ZM929.57 870.388C924.422 862.733 917.998 858.448 909.895 857.532H882.746V941H910.243L910.355 940.929C918.111 940.156 924.65 935.66 929.862 927.648C935.13 919.357 937.446 909.664 936.692 899.548C937.5 888.443 935.071 878.678 929.57 870.388Z" fill="black"/>
</svg>
