<svg width="16240" height="4316" viewBox="0 0 16240 4316" fill="none" xmlns="http://www.w3.org/2000/svg">
<path d="M5204.54 3684.59C5201.67 3693.35 5197.36 3701.61 5192.68 3709.38C5152.04 3779.86 5112.86 3779.38 5073.67 3707.92C5048.84 3662.24 5034.82 3611.2 5035.54 3553.36C5036.25 3506.2 5035.54 3459.56 5035.54 3412.91H5039.14C5042.36 3321.98 5045.6 3231.11 5048.5 3140.22C5048.84 3117.36 5050.29 3094.03 5069.71 3091.6C5080.48 3090.64 5093.79 3100.36 5102.79 3110.58C5160.33 3174.25 5211 3244.23 5229.35 3347.27C5249.87 3464.41 5237.62 3575.73 5204.54 3684.59ZM5257.41 1837.14C5327.89 1460.45 5411.66 1090.07 5529.24 734.757C5553.33 662.823 5586.43 596.235 5614.84 526.728C5642.89 457.714 5687.11 422.23 5745.37 408.62C5769.81 460.633 5784.19 512.152 5775.22 580.694C5732.06 914.108 5634.61 1220.82 5522.78 1518.75C5411.66 1815.24 5289.04 2103.96 5171.46 2396.08C5168.24 2404.34 5163.55 2411.14 5159.6 2418.94C5157.8 2417.95 5156.37 2416.98 5154.58 2416C5188.72 2223.06 5221.44 2029.6 5257.41 1837.14ZM4034.1 1026.87C4001.75 1007.44 3984.49 974.385 3972.63 934.544C3933.42 802.805 3986.65 595.763 4079.04 527.715C4107.46 701.699 4065.04 860.163 4034.1 1026.87ZM5962.19 1675.75C5951.77 1692.75 5946.01 1702.5 5939.89 1712.22C5847.13 1871.16 5756.15 2031.06 5661.21 2187.57C5569.9 2337.75 5468.13 2473.85 5335.08 2557.95C5321.41 2566.69 5307.04 2574.46 5285.09 2587.1C5301.27 2546.75 5313.87 2517.6 5325.01 2487.44C5427.86 2207.49 5531.77 1928 5632.1 1646.11C5708.68 1432.73 5785.99 1219.36 5852.51 999.672C5911.5 804.759 5937.02 597.223 5913.64 385.286C5898.54 248.224 5846.75 142.76 5743.21 106.804C5574.19 47.9652 5422.81 95.1267 5310.63 282.742C5253.1 379.469 5204.91 488.818 5163.55 599.649C4993.47 1055.08 4877.7 1536.74 4796.42 2033.96C4771.25 2188.05 4752.19 2344.08 4726.3 2497.67C4701.48 2641.05 4601.16 2757.7 4503 2765.49C4479.99 2642.51 4479.28 2625.01 4505.88 2511.76C4537.16 2376.13 4569.89 2241.02 4602.24 2105.92C4635.69 1966.9 4675.96 1830.33 4702.58 1688.87C4743.57 1468.2 4673.45 1313.17 4512.36 1246.58C4487.18 1236.36 4461.28 1229.55 4435.76 1221.78C4378.96 1204.29 4321.77 1187.27 4266.74 1170.27C4299.49 980.224 4333.28 796.988 4362.04 611.777C4389.01 437.299 4323.21 312.387 4193.39 281.282C4058.19 249.19 3927.3 334.261 3859.7 496.117C3795.35 650.202 3776.28 816.436 3784.55 990.421C3791.39 1130.9 3835.97 1243.66 3921.55 1325.79C3958.22 1360.8 3965.43 1385.1 3954.63 1445.85C3907.53 1712.7 3851.44 1976.13 3777.72 2232.29C3705.45 2481.12 3622.39 2721.25 3479.98 2914.21C3469.92 2927.82 3458.42 2941.43 3445.84 2950.18C3421 2968.15 3401.25 2957.46 3395.12 2921.01C3389.73 2888.45 3382.54 2851.03 3389.37 2821.36C3470.28 2459.74 3543.99 2094.73 3654.02 1746.23C3677.75 1670.88 3700.06 1594.59 3725.58 1509.54C3648.28 1487.17 3576 1460.92 3502.65 1446.34C3423.54 1430.31 3352.33 1458.99 3307.39 1555.69C3281.14 1611.59 3260.27 1672.83 3241.22 1734.08C3201.67 1860.94 3173.63 1996.54 3125.08 2116.11C3003.91 2415.52 2874.81 2709.1 2745.73 3002.18C2731.69 3034.76 2698.26 3051.76 2666.98 3083.34C2657.27 3021.15 2636.06 2969.14 2644.68 2929.28C2710.49 2631.35 2779.87 2334.36 2853.61 2039.8C2887.75 1902.74 2933.43 1771.51 2976.93 1627.63C2899.27 1602.85 2824.47 1570.29 2748.24 1556.19C2631.37 1534.81 2575.28 1583.88 2526.37 1728.24C2522.41 1739.92 2518.11 1751.57 2515.22 1763.25C2435.75 2073.82 2357.73 2384.91 2308.47 2706.65C2281.14 2885.03 2282.93 3062.95 2335.08 3235.49C2382.55 3393.44 2470.64 3467.33 2594.69 3472.67C2707.97 3477.05 2793.9 3419.22 2851.8 3284.56C2909.34 3150.42 2970.11 3018.7 3029.79 2886.49C3034.83 2874.82 3040.94 2864.15 3050.3 2845.66C3051.01 2871.42 3051.38 2888.45 3052.09 2904.98C3057.84 2999.75 3057.11 3095.51 3089.12 3183.97C3133 3304.51 3213.54 3358.94 3310.63 3332.69C3381.11 3313.76 3438.65 3261.72 3491.85 3200.48C3628.14 3043.97 3732.43 2851.5 3807.21 2635.21C3916.52 2320.26 4015.78 1998.5 4118.97 1679.66C4141.27 1610.13 4161.75 1539.18 4183.33 1468.71C4239.06 1559.58 4255.97 1659.72 4236.19 1770.53C4214.97 1888.16 4194.48 2005.3 4172.9 2122.44C4128.67 2361.09 4097.75 2600.71 4119.33 2848.61C4139.11 3073.16 4269.63 3199.51 4429.65 3134.39C4491.14 3109.1 4547.94 3062.45 4606.91 3024.54C4628.13 3010.93 4648.28 2994.88 4673.45 2976.44C4673.45 3056.61 4673.09 3129.04 4673.45 3201.45C4674.17 3274.37 4673.45 3346.79 4676.69 3419.22C4681.36 3521.29 4684.95 3623.84 4696.1 3724.94C4719.47 3938.3 4794.62 4042.8 4947.46 4069.54C5174.7 4109.88 5333.99 3958.73 5396.57 3691.89C5445.82 3482.4 5421.36 3285.06 5342.63 3096.48C5326.79 3058.57 5309.2 3021.62 5291.2 2980.79C5612.66 2702.79 5821.59 2298.38 6003.18 1861.91V1776.37C5990.25 1744.27 5977.29 1712.22 5962.19 1675.75Z" fill="white"/>
<path d="M202.776 4280.35C47.778 4202.6 -20.5417 3998.45 5.36011 3791.41C13.6341 3725.3 31.9606 3661.13 48.1592 3586.28C107.125 3656.28 163.582 3704.39 230.456 3726.26C326.123 3757.39 419.598 3739.87 509.849 3695.65C686.048 3609.61 847.144 3482.77 1000.68 3338.9C1086.99 3257.72 1152.79 3151.27 1182.99 2998.66C1138.76 2984.07 1093.11 2960.26 1046.35 2954.91C850.749 2932.55 656.573 2900.95 472.815 2799.84C348.753 2731.32 232.251 2646.27 144.874 2504.34C9.67972 2284.65 -14.4275 2033.35 43.8395 1765.06C89.1478 1558.49 170.76 1374.76 259.232 1197.84C494.762 727.831 811.554 389.051 1190.9 153.802C1405.93 21.1189 1674.89 79.4424 1832.76 290.885C1945.31 442.029 1989.17 631.104 1976.59 840.594C1960.05 1115.21 1920.87 1384.48 1849.66 1643.54C1792.49 1853.52 1726.69 2058.63 1619.88 2233.6C1588.61 2284.65 1555.16 2336.17 1516.68 2376.51C1429.67 2468.85 1330.78 2466.9 1248.44 2367.27C1182.99 2288.04 1125.11 2197.15 1063.98 2111.61C1069.02 2102.38 1070.08 2097.04 1072.59 2096.54C1201.34 2042.1 1294.46 1927.41 1370.34 1781.59C1521 1490.44 1611.24 1167.22 1652.24 818.226C1656.91 778.857 1661.96 739.015 1661.6 699.646C1660.87 599.506 1604.77 536.331 1531.44 549.447C1464.2 561.597 1404.5 598.54 1347.31 645.701C1015.07 917.872 751.493 1280.46 559.842 1737.35C506.244 1865.67 464.541 2001.28 460.967 2151.47C456.283 2333.25 525.317 2467.39 656.207 2511.14C747.904 2541.77 842.459 2555.38 935.966 2573.35C1125.82 2608.84 1316.39 2637.02 1505.18 2680.3C1569.9 2694.87 1633.19 2736.17 1691.82 2778.98C1773.06 2838.24 1795.01 2940.32 1761.93 3056.49C1736.76 3144.46 1695.04 3216.89 1648.65 3285.9C1432.89 3607.68 1195.22 3892.97 909 4096.62C776.315 4190.94 640.39 4274.53 489.712 4301.26C393.347 4318.75 296.997 4327.51 202.776 4280.35Z" fill="white"/>
<path d="M9166.68 4024.61C9114.66 3873.04 9112.89 3708.69 9115.46 3544.35C9122.44 3046.26 9216.18 2572.36 9295.2 2094.63C9336.83 1837.29 9381.11 1581.24 9426.28 1325.18C9438.43 1260.2 9453.19 1196.51 9473.13 1136.65C9511.32 1021.99 9576.45 955.765 9663.25 969.774C9759.64 986.315 9855.11 1024.57 9954.94 1053.83C9888.96 1367.27 9829.07 1653.87 9763.09 1968.55C9803.04 1946.83 9825.62 1941.77 9842.07 1925.23C9987.91 1781.25 10133.8 1638.57 10276.1 1488.29C10318.7 1443.67 10356.9 1385.05 10388.1 1322.65C10483.6 1130.29 10517.5 920.094 10428.9 706.071C10342.1 493.286 10198.9 433.479 10039.1 460.148C9769.99 503.526 9532.17 669.107 9313.41 895.901C9027.82 1191.45 8787.35 1553.22 8611.99 2000.34C8516.48 2244.97 8439.19 2493.37 8499.15 2820.81C8358.49 2740.53 8233.5 2683.2 8117.18 2599.14C8012.97 2523.92 7966.96 2359.63 8007.79 2199.11C8048.59 2037.3 8096.32 1867.89 8170.12 1736.69C8603.32 965.948 9134.59 396.514 9789.12 89.5456C10000.1 -9.87038 10213.7 -22.6418 10429.8 32.158C10691.9 98.4353 10888.1 472.919 10904.6 912.442C10915.9 1205.46 10833.5 1439.85 10703.2 1647.51C10527.9 1927.76 10308.2 2112.47 10079.1 2279.34C10037.4 2311.24 9994.89 2343.03 9944.51 2380.05C9970.58 2429.68 9989.68 2469.17 10011.3 2503.6C10194.6 2799.15 10378.6 3092.11 10561.7 3388.95C10731 3662.84 10911.6 3911.24 11185.1 3955.85C11110.3 4247.58 10892.5 4387.73 10703.2 4276.83C10557.4 4192.78 10426.3 4070.46 10319.5 3901.06C10115.5 3578.73 9914.15 3251.39 9712.71 2926.47C9695.38 2898.46 9678.86 2871.73 9651.98 2827.17C9572.08 3308.67 9536.5 3777.45 9574.73 4252.7C9408.03 4349.47 9246.54 4257.82 9166.68 4024.61Z" fill="white"/>
<path d="M12030.6 2019.57C12024.4 2052 12018.2 2084.5 12012 2116.97C11993.3 2214.32 11974.6 2311.75 11955.3 2408.99C11936 2506.2 11915.9 2603.18 11895.3 2699.82C11888.4 2732.05 11881.7 2764.33 11874.6 2796.46C11872.9 2804.26 11870.8 2812.03 11868.4 2819.72C11866.1 2827.41 11863.4 2835.03 11860.5 2842.61C11843.1 2888.04 11816.7 2930.95 11790 2968.05C11736.8 3042.37 11646.5 3021.03 11614.4 2930.54C11606.8 2909.2 11601.2 2886.68 11596.2 2863.91C11589.1 2831.97 11583.2 2799.32 11575.9 2767.46C11581.1 2698.31 11589.5 2630.89 11601.2 2565.36C11624.6 2434.18 11661.7 2310.28 11715.2 2194.07C11741.9 2135.93 11772.8 2079.75 11808.2 2025.53C11823.4 2002.49 11840.2 1984.13 11858.5 1969.88C11864.6 1965.09 11870.8 1960.79 11877.2 1956.94C11903 1941.45 11931.3 1932.89 11962.1 1929.91C12014.5 1923.95 12042.5 1958.11 12030.6 2019.57ZM16193.5 1746.4C16148 1721.62 16121.4 1746.4 16099.7 1795.04C16059.8 1885.53 16022.1 1977.76 15973.7 2061.39C15945.1 2111.76 15899.6 2146.79 15859 2192.04C15812.2 2080.17 15812.2 2048.61 15853.4 1859.06C15906.6 1613.22 15962.6 1367.31 16012.2 1120.56C16035.3 1006.16 15996.1 914.012 15917.8 870.424C15778.6 793.58 15596.6 866.163 15524.6 1030.11C15427.4 1251.21 15332.2 1474.01 15235.6 1696.02C15232.9 1695.16 15237 1696.85 15234.3 1696.02C15295.8 1135.95 15423.1 597.21 15560.3 44.8633C15472.1 28.65 15392.4 9.87301 15311.9 1.31388C15218.1 -9.77152 15156.6 50.0293 15122.3 153.304C15109 192.556 15097.1 233.542 15090.8 274.527C15006.2 781.666 14915.2 1286.2 14843.1 1795.87C14797 2117.76 14648.7 2328.61 14425.5 2478.03C14356.2 2524.15 14278.5 2489.12 14254.1 2397.76C14246.4 2369.59 14242.1 2338.03 14239.4 2308.13C14212.8 1986.28 14282 1689.16 14401 1405.73C14407.3 1390.38 14415 1372.43 14426.2 1363.88C14452.8 1345.1 14484.2 1315.24 14508.7 1320.33C14527.6 1323.76 14549.3 1375 14552.1 1407.42C14558.4 1481.7 14592 1524.39 14645.1 1566.28C14665.4 1533.78 14695.5 1505.61 14701.8 1471.49C14731.9 1299.85 14659.8 1121.43 14491.9 1110.34C14302.3 1099.26 14119.7 1211.09 14002.2 1385.25C13830.1 1640.52 13777.6 1817.25 13785.3 2249.24L13790.9 2334.6C13738.4 2257.76 13720.9 2167.27 13711.9 2058.03C13702.1 1934.17 13711.9 1809.55 13734.9 1689.16C13742.6 1646.48 13750.3 1602.93 13755.2 1560.25C13765.7 1462.93 13713.2 1368.17 13634.2 1347.7C13471.9 1306.71 13331.3 1375 13252.9 1551.72C13154.2 1772.83 13065.4 2000.8 12971.6 2225.33C12961.8 2250.07 12952 2274.84 12942.3 2299.61C12937.4 2297.05 12931.7 2294.48 12926.2 2291.92C12983.5 2036.65 13040.2 1780.52 13099.7 1513.26C13014.3 1502.18 12939.5 1486 12864.6 1484.31C12757.5 1482.57 12703 1529.52 12678.5 1656.73C12636.5 1872.71 12602.2 2090.42 12565.8 2308.13C12544.2 2437.91 12533 2570.22 12503.6 2696.57C12474.2 2820.36 12401.5 2907.46 12290.2 2973.22C12290.2 2882.73 12279.7 2804.19 12291.6 2731.6C12325.9 2531.8 12366.4 2332.94 12409.8 2134.84C12444.1 1979.45 12486.8 1826.63 12525.9 1673.81C12348.3 1564.54 12240.5 1583.32 12106.9 1737.01C12096.4 1748.92 12069.1 1753.22 12055.1 1745.49C11837.5 1632 11653.5 1705.37 11494.7 1898.31C11194.6 2260.32 11128.1 2699.14 11228.9 3184.07C11261.1 3342.02 11349.2 3441.07 11484.9 3470.93C11637.4 3503.4 11746.6 3421.42 11833.3 3278.82C11873.2 3213.97 11911 3147.38 11950.9 3078.23C11974.6 3131.13 11990.1 3178.11 12013.9 3218.23C12074 3324.11 12193.6 3344.58 12283.2 3276.3C12312.6 3253.26 12341.3 3227.62 12367.9 3200.28C12428.7 3136.26 12487.5 3068.8 12543.5 3007.34C12566.6 3059.45 12585.4 3116.65 12614.8 3162.73C12664.5 3241.27 12736.6 3258.35 12814.2 3245.57C12887 3232.75 12889.1 3155.03 12902.4 3091.84C12979.3 2730.7 13081.5 2381.55 13225.6 2050.3C13235.4 2028.13 13246.6 2006.75 13257.1 1984.54C13266.9 2019.57 13265.5 2049.47 13262.7 2078.47C13248.7 2219.34 13225.6 2361.07 13223.5 2502.77C13221.4 2618.03 13231.2 2738.43 13258.5 2848.56C13303.2 3029.55 13443.9 3088.48 13578.2 2991.13C13630 2953.57 13676.9 2902.33 13719.6 2849.43C13767.8 2790.5 13809.1 2723.04 13855.3 2656.49C13866.5 2672.67 13876.2 2685.49 13884.7 2699.14C13967.2 2833.18 14079.2 2893.81 14214.2 2894.68C14368.8 2895.51 14486.3 2801.58 14592 2675.27C14655.6 2599.26 14721.4 2525.84 14787.2 2450.73C14797.7 2490.02 14806.1 2532.67 14819.4 2574.52C14853 2679.53 14936.2 2739.29 15033.5 2739.29C15126.5 2739.29 15143.3 2655.63 15167.1 2574.52C15259.4 2262.06 15352.5 1949.59 15447.6 1637.96C15464.4 1581.62 15491.7 1528.65 15514.1 1474.01C15520.4 1476.61 15526 1479.14 15531.6 1481.7C15520.4 1578.19 15508.5 1673.81 15497.3 1770.3C15477 1948.72 15460.2 2128.01 15504.3 2305.57C15562.4 2543.75 15719.8 2609.51 15884.2 2465.21C16055.6 2314.13 16155 2101.54 16231.2 1867.62C16250.1 1809.55 16238.9 1772 16193.5 1746.4Z" fill="white"/>
</svg>
