<svg xmlns="http://www.w3.org/2000/svg" version="1.1" xmlns:xlink="http://www.w3.org/1999/xlink" xmlns:svgjs="http://svgjs.dev/svgjs" width="1030" height="560" preserveAspectRatio="none" viewBox="0 0 1030 560"><g mask="url(&quot;#SvgjsMask1819&quot;)" fill="none"><path d="M 470,-825.749129012117 C 504.6,-713.75 649,-489.75 643,-265.749129012117 C 637,-41.75 443.8,129.1 440,294.250870987883 C 436.2,459.4 587.2,506.85 624,560" stroke="rgba(206, 231, 239, 1)" stroke-width="2"></path><path d="M 489,-905.3158116015845 C 515.2,-793.32 629.6,-569.32 620,-345.31581160158447 C 610.4,-121.32 456.6,33.62 441,214.68418839841553 C 425.4,395.75 521.8,490.94 542,560" stroke="rgba(0, 128, 136, 1)" stroke-width="2"></path><path d="M 574,-196.89833608990983 C 530.4,-84.9 338.2,139.1 356,363.10166391009017 C 373.8,587.1 663,883.72 663,923.1016639100901 C 663,962.48 417.4,632.62 356,560" stroke="rgba(0, 128, 136, 1)" stroke-width="2"></path><path d="M 418,-785.5436202289043 C 447.6,-673.54 578,-449.54 566,-225.54362022890427 C 554,-1.54 346.8,177.35 358,334.4563797710957 C 369.2,491.57 569.2,514.89 622,560" stroke="rgba(0, 128, 136, 1)" stroke-width="2"></path></g><defs><mask id="SvgjsMask1819"><rect width="1030" height="560" fill="#ffffff"></rect></mask></defs></svg>